<svg xmlns="http://www.w3.org/2000/svg" width="94" height="100" viewBox="0 0 94 100" fill="none">
<path d="M13 78.284H50.756V86.6C50.756 92.399 55.457 97.1 61.256 97.1H65.48C71.279 97.1 75.98 92.399 75.98 86.6V78.284H80.072C85.871 78.284 90.572 73.583 90.572 67.784V66.888C90.572 61.089 85.871 56.388 80.072 56.388H75.98V50.12C75.98 44.321 71.279 39.62 65.48 39.62H61.896C56.097 39.62 51.396 44.321 51.396 50.12V56.388H34.7079L61.7781 19.1769C66.8269 12.2369 61.8694 2.5 53.2873 2.5H51.2617C47.9407 2.5 44.8155 4.07109 42.8345 6.7365L4.57275 58.2159C3.22681 60.0268 2.5 62.2231 2.5 64.4794V67.784C2.5 73.583 7.20101 78.284 13 78.284Z" fill="#1A3263" stroke="white" stroke-width="5" stroke-linejoin="round"/>
</svg>