<?xml version="1.0" standalone="no"?>
<!DOCTYPE svg PUBLIC "-//W3C//DTD SVG 20010904//EN"
 "http://www.w3.org/TR/2001/REC-SVG-20010904/DTD/svg10.dtd">
<svg version="1.0" xmlns="http://www.w3.org/2000/svg"
 width="512.000000pt" height="512.000000pt" viewBox="0 0 512.000000 512.000000"
 preserveAspectRatio="xMidYMid meet">

<g transform="translate(0.000000,512.000000) scale(0.100000,-0.100000)"
fill="#000000" stroke="none">
<path d="M3865 5109 c-177 -26 -377 -112 -524 -227 l-23 -19 25 -39 c47 -73
57 -152 32 -254 -5 -22 55 -86 584 -614 l589 -589 46 13 c72 20 158 8 219 -30
l51 -32 18 24 c228 291 296 674 183 1021 -107 330 -372 595 -702 702 -151 50
-342 66 -498 44z"/>
<path d="M2798 4732 c-199 -199 -197 -187 -65 -319 132 -132 120 -134 319 65
199 199 197 187 65 319 -132 132 -120 134 -319 -65z"/>
<path d="M3180 4345 l-65 -65 583 -583 582 -582 65 65 65 65 -583 583 -582
582 -65 -65z"/>
<path d="M1780 3335 c-779 -779 -874 -877 -862 -892 57 -80 76 -177 51 -267
l-11 -39 194 -194 c106 -106 197 -193 202 -193 5 0 64 53 130 118 135 132 161
147 266 146 148 -1 263 -116 264 -264 1 -105 -14 -131 -146 -266 -65 -66 -118
-125 -118 -130 0 -5 87 -96 194 -203 l194 -194 52 13 c84 20 162 5 243 -47
l27 -18 878 878 c781 781 876 879 864 894 -57 80 -76 177 -51 267 l11 39 -194
194 c-106 106 -197 193 -202 193 -5 0 -64 -53 -130 -118 -135 -132 -161 -147
-266 -146 -147 0 -263 117 -264 264 -1 105 14 131 146 266 65 66 118 125 118
130 0 5 -87 96 -193 202 l-194 194 -39 -11 c-66 -18 -144 -13 -200 13 -28 13
-55 29 -58 35 -4 6 -13 11 -19 11 -7 0 -406 -394 -887 -875z"/>
<path d="M3397 3522 c-98 -98 -107 -110 -107 -145 0 -52 35 -87 87 -87 35 0
47 8 148 110 l110 110 -60 60 c-33 33 -62 60 -65 60 -3 0 -54 -48 -113 -108z"/>
<path d="M4483 3058 c-85 -84 -156 -163 -160 -175 -10 -42 7 -73 85 -153 77
-79 110 -98 154 -87 13 4 92 76 177 161 153 155 154 155 148 193 -5 31 -23 54
-95 126 -127 124 -116 126 -309 -65z"/>
<path d="M388 2322 c-198 -198 -196 -186 -69 -316 84 -85 92 -91 131 -91 40 0
46 6 195 156 196 196 193 184 62 316 -132 132 -120 134 -319 -65z"/>
<path d="M772 1937 l-62 -62 583 -583 582 -582 65 65 65 65 -580 580 c-319
319 -582 580 -585 580 -3 0 -34 -28 -68 -63z"/>
<path d="M1595 1720 l-110 -110 63 -62 62 -63 110 110 c102 101 110 113 110
148 0 27 -7 45 -25 62 -17 18 -35 25 -62 25 -35 0 -47 -8 -148 -110z"/>
<path d="M219 1753 c-85 -114 -148 -246 -186 -391 -23 -86 -26 -115 -26 -267
0 -152 3 -181 26 -268 30 -111 95 -255 157 -348 60 -88 189 -219 277 -280 100
-69 243 -135 360 -166 86 -23 118 -26 263 -27 138 0 179 3 253 22 157 39 331
121 425 202 l34 28 -25 38 c-47 73 -57 152 -32 254 5 22 -55 86 -584 614
l-590 590 -39 -12 c-80 -24 -176 -9 -242 38 -15 11 -30 20 -32 20 -2 0 -20
-21 -39 -47z"/>
<path d="M2068 642 c-198 -198 -196 -187 -70 -314 71 -72 94 -90 125 -95 l38
-6 160 159 c201 201 198 189 66 321 -132 132 -120 134 -319 -65z"/>
</g>
</svg>
