<svg width="56" height="24" viewBox="0 0 56 24" fill="none" xmlns="http://www.w3.org/2000/svg">
<path d="M6 10.5C5.17157 10.5 4.5 11.1716 4.5 12C4.5 12.8284 5.17157 13.5 6 13.5L6 10.5ZM52.0607 13.0607C52.6464 12.4749 52.6464 11.5251 52.0607 10.9393L42.5147 1.3934C41.9289 0.807615 40.9792 0.807615 40.3934 1.3934C39.8076 1.97919 39.8076 2.92894 40.3934 3.51472L48.8787 12L40.3934 20.4853C39.8076 21.0711 39.8076 22.0208 40.3934 22.6066C40.9792 23.1924 41.9289 23.1924 42.5147 22.6066L52.0607 13.0607ZM6 13.5L51 13.5L51 10.5L6 10.5L6 13.5Z" fill="#1A3263"/>
</svg>
