<svg width="32" height="32" viewBox="0 0 24 24" fill="none" xmlns="http://www.w3.org/2000/svg">
<path d="M0.806641 2.70098C0.530498 2.70098 0.306641 2.92484 0.306641 3.20098C0.306641 3.47713 0.530498 3.70098 0.806641 3.70098V2.70098ZM5.79492 7.6502L6.29172 7.59371L5.79492 7.6502ZM10.7176 15.4439L10.7099 14.944L10.7176 15.4439ZM18.6316 15.4439L18.6731 14.9457L18.6559 14.9442L18.6385 14.944L18.6316 15.4439ZM22.7908 6.3746L23.2789 6.48306C23.3118 6.33501 23.2757 6.18003 23.1808 6.06173C23.0859 5.94343 22.9424 5.8746 22.7908 5.8746V6.3746ZM8.40692 5.8746C8.13077 5.8746 7.90692 6.09845 7.90692 6.3746C7.90692 6.65074 8.13077 6.8746 8.40692 6.8746V5.8746ZM0.806641 3.70098C1.68905 3.70098 2.36186 3.68285 2.92259 3.72701C3.47575 3.77057 3.8366 3.87115 4.10411 4.05635C4.36372 4.23609 4.59711 4.53912 4.79976 5.11747C5.005 5.70325 5.16431 6.53007 5.29812 7.7067L6.29172 7.59371C6.15557 6.39656 5.9865 5.48033 5.7435 4.7868C5.4979 4.08584 5.16316 3.57328 4.67333 3.23416C4.19139 2.90051 3.62147 2.77895 3.0011 2.73009C2.38828 2.68183 1.64477 2.70098 0.806641 2.70098V3.70098ZM5.29812 7.7067C5.46682 9.19007 5.62607 10.4409 5.83023 11.4764C6.03377 12.5088 6.28833 13.363 6.66459 14.0377C7.0487 14.7264 7.55927 15.227 8.25331 15.5407C8.93257 15.8477 9.75051 15.9589 10.7253 15.9439L10.7099 14.944C9.80723 14.9579 9.1555 14.8511 8.6652 14.6295C8.18967 14.4145 7.8308 14.0757 7.53796 13.5506C7.23728 13.0115 7.00738 12.2773 6.81134 11.283C6.61592 10.2918 6.46047 9.07757 6.29172 7.59371L5.29812 7.7067ZM10.7253 15.9439C13.7224 15.8978 17.2408 15.9247 18.6247 15.9439L18.6385 14.944C17.2496 14.9247 13.7205 14.8977 10.7099 14.944L10.7253 15.9439ZM18.5901 15.9422C19.6162 16.0277 21.3267 15.1614 22.0076 12.1458L21.0322 11.9256C20.4192 14.6405 19.0334 14.9757 18.6731 14.9457L18.5901 15.9422ZM22.0076 12.1458C22.6547 9.2802 23.1247 7.17693 23.2789 6.48306L22.3027 6.26613C22.1488 6.95866 21.6791 9.0608 21.0322 11.9256L22.0076 12.1458ZM22.7908 5.8746H8.40692V6.8746H22.7908V5.8746Z" fill="currentColor"/>
<circle cx="10.1133" cy="17.8945" r="2" stroke="currentColor"/>
<circle cx="18.1133" cy="17.8945" r="2" stroke="currentColor"/>
</svg>
