<svg width="32" height="32" viewBox="0 0 32 32" fill="none" xmlns="http://www.w3.org/2000/svg">
<path d="M1 4.50497C0.723858 4.50497 0.5 4.72883 0.5 5.00497C0.5 5.28112 0.723858 5.50497 1 5.50497V4.50497ZM7.80711 10.9553L8.30377 10.8977L7.80711 10.9553ZM14.5247 21.3785L14.5171 20.8786L14.5247 21.3785ZM25.3243 21.3785L25.365 20.8802L25.3481 20.8788L25.3311 20.8786L25.3243 21.3785ZM31 9.24931L31.4876 9.35988C31.5212 9.21161 31.4856 9.05609 31.3907 8.93729C31.2958 8.81849 31.152 8.74931 31 8.74931V9.24931ZM11.3715 8.74931C11.0953 8.74931 10.8715 8.97317 10.8715 9.24931C10.8715 9.52546 11.0953 9.74931 11.3715 9.74931V8.74931ZM1 5.50497C2.19564 5.50497 3.12736 5.48052 3.90255 5.54035C4.67076 5.59965 5.20265 5.73823 5.60744 6.01289C6.00323 6.28143 6.33881 6.72263 6.62219 7.51526C6.90849 8.31603 7.12746 9.43612 7.31044 11.0129L8.30377 10.8977C8.11836 9.29981 7.88922 8.08877 7.56382 7.17861C7.23551 6.26031 6.79582 5.61075 6.16891 5.18539C5.55099 4.76613 4.81274 4.60763 3.9795 4.54332C3.15325 4.47955 2.15224 4.50497 1 4.50497V5.50497ZM7.31044 11.0129C7.54065 12.9968 7.75735 14.6639 8.03453 16.0417C8.3111 17.4164 8.65443 18.5394 9.15522 19.4194C9.66408 20.3137 10.3342 20.9543 11.2404 21.3557C12.1316 21.7505 13.2161 21.8983 14.5322 21.8785L14.5171 20.8786C13.2713 20.8974 12.3502 20.7536 11.6454 20.4414C10.9557 20.1359 10.4393 19.654 10.0244 18.9248C9.60135 18.1815 9.2836 17.1802 9.01489 15.8445C8.7468 14.5118 8.53405 12.8821 8.30377 10.8977L7.31044 11.0129ZM14.5322 21.8785C18.6247 21.8168 23.4281 21.8528 25.3175 21.8785L25.3311 20.8786C23.4366 20.8528 18.6228 20.8167 14.5171 20.8786L14.5322 21.8785ZM25.2836 21.8769C26.5544 21.9807 28.8338 20.9221 29.753 16.9327L28.7785 16.7082C27.9319 20.3826 25.986 20.9309 25.365 20.8802L25.2836 21.8769ZM29.753 16.9327C30.636 13.1003 31.2773 10.2876 31.4876 9.35988L30.5124 9.13875C30.3023 10.0651 29.6613 12.8767 28.7785 16.7082L29.753 16.9327ZM31 8.74931H11.3715V9.74931H31V8.74931Z" fill="currentColor"/>
<path d="M16.6122 24.656C16.6122 26.2169 15.3182 27.4994 13.7006 27.4994C12.0831 27.4994 10.7891 26.2169 10.7891 24.656C10.7891 23.095 12.0831 21.8125 13.7006 21.8125C15.3182 21.8125 16.6122 23.095 16.6122 24.656Z" stroke="currentColor"/>
<path d="M27.5262 24.656C27.5262 26.2169 26.2322 27.4994 24.6147 27.4994C22.9971 27.4994 21.7031 26.2169 21.7031 24.656C21.7031 23.095 22.9971 21.8125 24.6147 21.8125C26.2322 21.8125 27.5262 23.095 27.5262 24.656Z" stroke="currentColor"/>
</svg>
