<svg width="24" height="24" viewBox="0 0 24 24" fill="none" xmlns="http://www.w3.org/2000/svg">
<path d="M10.8134 15.4372C12.325 16.7539 15.6607 19.5699 16.8598 20.3747C17.7191 20.9515 18.2768 21.2354 18.4995 20.7595C19.5073 16.1512 21.4937 6.5494 21.8985 4.57471C22.2008 3.09977 21.8164 2.81203 20.8969 3.09996C20.8969 3.09996 2.35188 11.3849 2.11011 11.5458C1.10714 12.2137 7.28629 13.4622 7.28629 13.4622M10.8134 15.4372L17.5381 7.52957C17.686 7.35557 17.4737 7.10944 17.2799 7.2303L7.28629 13.4622M10.8134 15.4372C10.6454 15.9309 10.2087 17.3134 9.80564 18.8935C9.68143 19.3803 9.55403 19.6921 9.43229 19.881M7.28629 13.4622L8.7979 19.881C8.81284 20.0837 9.20306 20.1797 9.43229 19.881M12.8414 17.1699L9.43229 19.881" stroke="currentColor"/>
</svg>
