<svg width="24" height="24" viewBox="0 0 24 24" fill="none" xmlns="http://www.w3.org/2000/svg">
<path fill-rule="evenodd" clip-rule="evenodd" d="M16.0946 2.00007H16.0897C14.2185 2.00002 11.1255 1.99993 7.50002 2.0001C6.2075 2.00016 5.08825 2.75469 4.26966 3.80715C3.44621 4.86585 2.99998 6.13577 3 7.00009V7.0001V16.0002C3 17.5963 3.68077 18.8437 4.59197 19.6979C5.51557 20.5638 6.64771 21.0002 7.5 21.0002H7.50882H7.5177H7.52663H7.53563H7.54469H7.5538H7.56298H7.57221H7.5815H7.59085H7.60026H7.60972H7.61925H7.62883H7.63847H7.64817H7.65793H7.66775H7.67762H7.68755H7.69754H7.70758H7.71768H7.72784H7.73806H7.74833H7.75866H7.76905H7.77949H7.78999H7.80055H7.81116H7.82183H7.83255H7.84334H7.85417H7.86507H7.87601H7.88702H7.89808H7.90919H7.92036H7.93159H7.94287H7.9542H7.96559H7.97704H7.98854H8.00009H8.0117H8.02337H8.03508H8.04686H8.05868H8.07056H8.08249H8.09448H8.10652H8.11862H8.13076H8.14297H8.15522H8.16753H8.17989H8.1923H8.20477H8.21729H8.22986H8.24249H8.25516H8.26789H8.28067H8.29351H8.30639H8.31933H8.33232H8.34536H8.35845H8.37159H8.38479H8.39804H8.41133H8.42468H8.43808H8.45153H8.46503H8.47859H8.49219H8.50584H8.51955H8.5333H8.5471H8.56096H8.57486H8.58881H8.60282H8.61687H8.63097H8.64513H8.65933H8.67358H8.68788H8.70223H8.71662H8.73107H8.74557H8.76011H8.7747H8.78934H8.80403H8.81877H8.83355H8.84839H8.86327H8.8782H8.89317H8.9082H8.92327H8.93839H8.95356H8.96877H8.98403H8.99934H9.01469H9.03009H9.04554H9.06104H9.07658H9.09216H9.1078H9.12348H9.1392H9.15497H9.17079H9.18666H9.20256H9.21852H9.23452H9.25056H9.26665H9.28279H9.29897H9.31519H9.33146H9.34778H9.36414H9.38054H9.39699H9.41348H9.43002H9.4466H9.46323H9.4799H9.49661H9.51336H9.53016H9.54701H9.56389H9.58082H9.5978H9.61481H9.63187H9.64897H9.66612H9.68331H9.70054H9.71781H9.73512H9.75248H9.76988H9.78732H9.8048H9.82233H9.83989H9.8575H9.87515H9.89284H9.91057H9.92835H9.94616H9.96402H9.98192H9.99985H10.0178H10.0358H10.0539H10.072H10.0901H10.1083H10.1265H10.1448H10.1631H10.1814H10.1998H10.2182H10.2367H10.2552H10.2737H10.2923H10.3109H10.3296H10.3483H10.367H10.3858H10.4046H10.4234H10.4423H10.4612H10.4802H10.4992H10.5182H10.5373H10.5564H10.5756H10.5948H10.614H10.6333H10.6526H10.6719H10.6913H10.7107H10.7301H10.7496H10.7691H10.7887H10.8083H10.8279H10.8476H10.8673H10.887H10.9068H10.9266H10.9465H10.9663H10.9863H11.0062H11.0262H11.0462H11.0663H11.0864H11.1065H11.1267H11.1469H11.1671H11.1874H11.2077H11.228H11.2484H11.2688H11.2892H11.3097H11.3302H11.3507H11.3713H11.3919H11.4125H11.4332H11.4539H11.4746H11.4954H11.5162H11.5371H11.5579H11.5788H11.5998H11.6207H11.6417H11.6627H11.6838H11.7049H11.726H11.7472H11.7684H11.7896H11.8108H11.8321H11.8534H11.8748H11.8962H11.9176H11.939H11.9605H11.982H12.0035H12.025H12.0466H12.0683H12.0899H12.1116H12.1333H12.155H12.1768H12.1986H12.2204H12.2423H12.2642H12.2861H12.308H12.33H12.352H12.374H12.3961H12.4182H12.4403H12.4624H12.4846H12.5068H12.529H12.5513H12.5736H12.5959H12.6182H12.6406H12.663H12.6854H12.7078H12.7303H12.7528H12.7753H12.7979H12.8205H12.8431H12.8657H12.8884H12.9111H12.9338H12.9565H12.9793H13.0021H13.0249H13.0477H13.0706H13.0935H13.1164H13.1393H13.1623H13.1853H13.2083H13.2314H13.2544H13.2775H13.3006H13.3238H13.3469H13.3701H13.3933H13.4166H13.4398H13.4631H13.4864H13.5098H13.5331H13.5565H13.5799H13.6033H13.6268H13.6502H13.6737H13.6973H13.7208H13.7444H13.7679H13.7915H13.8152H13.8388H13.8625H13.8862H13.9099H13.9336H13.9574H13.9812H14.005H14.0288H14.0526H14.0765H14.1004H14.1243H14.1482H14.1722H14.1962H14.2201H14.2442H14.2682H14.2922H14.3163H14.3404H14.3645H14.3886H14.4128H14.4369H14.4611H14.4853H14.5096H14.5338H14.5581H14.5824H14.6067H14.631H14.6553H14.6797H14.7041H14.7285H14.7529H14.7773H14.8018H14.8262H14.8507H14.8752H14.8997H14.9243H14.9488H14.9734H14.998H15.0226H15.0472H15.0718H15.0965H15.1212H15.1459H15.1706H15.1953H15.22H15.2448H15.2696H15.2943H15.3191H15.344H15.3688H15.3937H15.4185H15.4434H15.4683H15.4932H15.5181H15.5431H15.568H15.593H15.618H15.643H15.668H15.693H15.7181H15.7431H15.7682H15.7933H15.8184H15.8435H15.8686H15.8937H15.9189H15.9441H15.9692H15.9944H16.0196H16.0448H16.0701H16.0953H16.1206H16.1458H16.1711H16.1964H16.2217H16.247H16.2724H16.2977H16.323H16.3484H16.3738H16.3992H16.4246H16.45H16.4754H16.5008H16.5263H16.5517H16.5772H16.6026H16.6281H16.6536H16.6791H16.7046H16.7302H16.7557H16.7812H16.8068H16.8324H16.8579H16.8835H16.9091H16.9347H16.9603H16.9859H17.0116H17.0372H17.0628H17.0885H17.1142H17.1398H17.1655H17.1912H17.2169H17.2426H17.2683H17.294H17.3198H17.3455H17.3712H17.397H17.4227H17.4485H17.4743H17.5C18.8204 21.0002 19.938 20.3426 20.7391 19.3698C21.545 18.3911 22 17.127 22 16.0002V15.9923V15.9844V15.9765V15.9685V15.9604V15.9523V15.9441V15.9359V15.9276V15.9193V15.9109V15.9024V15.8939V15.8854V15.8767V15.8681V15.8594V15.8506V15.8418V15.8329V15.8239V15.8149V15.8059V15.7968V15.7876V15.7784V15.7692V15.7599V15.7505V15.7411V15.7316V15.7221V15.7125V15.7029V15.6932V15.6834V15.6736V15.6638V15.6539V15.644V15.634V15.6239V15.6138V15.6036V15.5934V15.5832V15.5728V15.5625V15.5521V15.5416V15.5311V15.5205V15.5099V15.4992V15.4885V15.4777V15.4668V15.456V15.445V15.434V15.423V15.4119V15.4008V15.3896V15.3784V15.3671V15.3557V15.3443V15.3329V15.3214V15.3099V15.2983V15.2867V15.275V15.2632V15.2514V15.2396V15.2277V15.2158V15.2038V15.1918V15.1797V15.1675V15.1554V15.1431V15.1308V15.1185V15.1061V15.0937V15.0812V15.0687V15.0561V15.0435V15.0309V15.0181V15.0054V14.9926V14.9797V14.9668V14.9538V14.9408V14.9278V14.9147V14.9015V14.8883V14.8751V14.8618V14.8485V14.8351V14.8217V14.8082V14.7947V14.7811V14.7675V14.7538V14.7401V14.7264V14.7126V14.6987V14.6848V14.6709V14.6569V14.6429V14.6288V14.6147V14.6005V14.5863V14.572V14.5577V14.5434V14.529V14.5145V14.5V14.4855V14.4709V14.4563V14.4416V14.4269V14.4122V14.3974V14.3825V14.3677V14.3527V14.3377V14.3227V14.3077V14.2925V14.2774V14.2622V14.247V14.2317V14.2163V14.201V14.1856V14.1701V14.1546V14.1391V14.1235V14.1078V14.0922V14.0765V14.0607V14.0449V14.0291V14.0132V13.9972V13.9813V13.9653V13.9492V13.9331V13.917V13.9008V13.8846V13.8683V13.852V13.8356V13.8193V13.8028V13.7864V13.7698V13.7533V13.7367V13.7201V13.7034V13.6867V13.6699V13.6531V13.6363V13.6194V13.6025V13.5855V13.5685V13.5514V13.5344V13.5172V13.5001V13.4829V13.4656V13.4483V13.431V13.4137V13.3963V13.3788V13.3613V13.3438V13.3263V13.3087V13.291V13.2734V13.2556V13.2379V13.2201V13.2023V13.1844V13.1665V13.1485V13.1306V13.1125V13.0945V13.0764V13.0582V13.0401V13.0218V13.0036V12.9853V12.967V12.9486V12.9302V12.9118V12.8933V12.8748V12.8562V12.8377V12.819V12.8004V12.7817V12.7629V12.7442V12.7254V12.7065V12.6876V12.6687V12.6498V12.6308V12.6118V12.5927V12.5736V12.5545V12.5353V12.5161V12.4969V12.4776V12.4583V12.4389V12.4195V12.4001V12.3807V12.3612V12.3417V12.3221V12.3025V12.2829V12.2632V12.2435V12.2238V12.204V12.1842V12.1644V12.1445V12.1246V12.1047V12.0847V12.0647V12.0447V12.0246V12.0045V11.9844V11.9642V11.944V11.9238V11.9035V11.8832V11.8629V11.8425V11.8221V11.8017V11.7812V11.7607V11.7402V11.7196V11.699V11.6784V11.6577V11.637V11.6163V11.5956V11.5748V11.5539V11.5331V11.5122V11.4913V11.4703V11.4494V11.4284V11.4073V11.3862V11.3651V11.344V11.3228V11.3016V11.2804V11.2592V11.2379V11.2166V11.1952V11.1738V11.1524V11.131V11.1095V11.088V11.0665V11.0449V11.0233V11.0017V10.9801V10.9584V10.9367V10.9149V10.8932V10.8714V10.8495V10.8277V10.8058V10.7839V10.762V10.74V10.718V10.696V10.6739V10.6518V10.6297V10.6076V10.5854V10.5632V10.541V10.5187V10.4964V10.4741V10.4518V10.4294V10.4071V10.3846V10.3622V10.3397V10.3172V10.2947V10.2721V10.2495V10.2269V10.2043V10.1816V10.159V10.1362V10.1135V10.0907V10.0679V10.0451V10.0223V9.9994V9.9765V9.95358V9.93062V9.90765V9.88465V9.86162V9.83857V9.81549V9.79238V9.76925V9.7461V9.72292V9.69972V9.67649V9.65323V9.62995V9.60665V9.58332V9.55997V9.53659V9.51319V9.48976V9.46631V9.44284V9.41934V9.39582V9.37227V9.3487V9.32511V9.30149V9.27785V9.25418V9.23049V9.20678V9.18305V9.15929V9.13551V9.1117V9.08788V9.06403V9.04015V9.01626V8.99234V8.9684V8.94444V8.92045V8.89644V8.87241V8.84836V8.82429V8.80019V8.77607V8.75193V8.72777V8.70359V8.67938V8.65516V8.63091V8.60664V8.58235V8.55804V8.5337V8.50935V8.48498V8.46058V8.43616V8.41173V8.38727V8.36279V8.33829V8.31377V8.28924V8.26468V8.2401V8.2155V8.19088V8.16624V8.14158V8.1169V8.0922V8.06748V8.04275V8.01799V7.99321V7.96842V7.9436V7.91877V7.89392V7.86904V7.84415V7.81924V7.79432V7.76937V7.7444V7.71942V7.69442V7.6694V7.64436V7.6193V7.59423V7.56914V7.54403V7.5189V7.49375V7.46859V7.44341V7.41821V7.39299V7.36776V7.34251V7.31724V7.29196V7.26665V7.24134V7.216V7.19065V7.16528V7.13989V7.11449V7.08907V7.06364V7.03819V7.01272V6.98724V6.96174V6.93622V6.91069V6.88514V6.85958V6.834V6.80841V6.7828V6.75718V6.73154V6.70588V6.68021V6.65453V6.62883V6.60311V6.57738V6.55163V6.52588V6.5001C22 5.35765 21.3496 4.23156 20.412 3.3712C19.4682 2.50523 18.3333 2.00008 17.5 2.0001L16.0946 2.00007ZM16.0947 1.00007L17.5 1.0001C18.6667 1.00007 20.0318 1.66519 21.0881 2.63438C22.1504 3.60916 23 4.9831 23 6.5001V6.52588V6.55163V6.57738V6.60311V6.62883V6.65453V6.68021V6.70588V6.73154V6.75718V6.7828V6.80841V6.834V6.85958V6.88514V6.91069V6.93622V6.96174V6.98724V7.01272V7.03819V7.06364V7.08907V7.11449V7.13989V7.16528V7.19065V7.216V7.24134V7.26665V7.29196V7.31724V7.34251V7.36776V7.39299V7.41821V7.44341V7.46859V7.49375V7.5189V7.54403V7.56914V7.59423V7.6193V7.64436V7.6694V7.69442V7.71942V7.7444V7.76937V7.79432V7.81924V7.84415V7.86904V7.89392V7.91877V7.9436V7.96842V7.99321V8.01799V8.04275V8.06748V8.0922V8.1169V8.14158V8.16624V8.19088V8.2155V8.2401V8.26468V8.28924V8.31377V8.33829V8.36279V8.38727V8.41173V8.43616V8.46058V8.48498V8.50935V8.5337V8.55804V8.58235V8.60664V8.63091V8.65516V8.67938V8.70359V8.72777V8.75193V8.77607V8.80019V8.82429V8.84836V8.87241V8.89644V8.92045V8.94444V8.9684V8.99234V9.01626V9.04015V9.06403V9.08788V9.1117V9.13551V9.15929V9.18305V9.20678V9.23049V9.25418V9.27785V9.30149V9.32511V9.3487V9.37227V9.39582V9.41934V9.44284V9.46631V9.48976V9.51319V9.53659V9.55997V9.58332V9.60665V9.62995V9.65323V9.67649V9.69972V9.72292V9.7461V9.76925V9.79238V9.81549V9.83857V9.86162V9.88465V9.90765V9.93062V9.95358V9.9765V9.9994V10.0223V10.0451V10.0679V10.0907V10.1135V10.1362V10.159V10.1816V10.2043V10.2269V10.2495V10.2721V10.2947V10.3172V10.3397V10.3622V10.3846V10.4071V10.4294V10.4518V10.4741V10.4964V10.5187V10.541V10.5632V10.5854V10.6076V10.6297V10.6518V10.6739V10.696V10.718V10.74V10.762V10.7839V10.8058V10.8277V10.8495V10.8714V10.8932V10.9149V10.9367V10.9584V10.9801V11.0017V11.0233V11.0449V11.0665V11.088V11.1095V11.131V11.1524V11.1738V11.1952V11.2166V11.2379V11.2592V11.2804V11.3016V11.3228V11.344V11.3651V11.3862V11.4073V11.4284V11.4494V11.4703V11.4913V11.5122V11.5331V11.5539V11.5748V11.5956V11.6163V11.637V11.6577V11.6784V11.699V11.7196V11.7402V11.7607V11.7812V11.8017V11.8221V11.8425V11.8629V11.8832V11.9035V11.9238V11.944V11.9642V11.9844V12.0045V12.0246V12.0447V12.0647V12.0847V12.1047V12.1246V12.1445V12.1644V12.1842V12.204V12.2238V12.2435V12.2632V12.2829V12.3025V12.3221V12.3417V12.3612V12.3807V12.4001V12.4195V12.4389V12.4583V12.4776V12.4969V12.5161V12.5353V12.5545V12.5736V12.5927V12.6118V12.6308V12.6498V12.6687V12.6876V12.7065V12.7254V12.7442V12.7629V12.7817V12.8004V12.819V12.8377V12.8562V12.8748V12.8933V12.9118V12.9302V12.9486V12.967V12.9853V13.0036V13.0218V13.0401V13.0582V13.0764V13.0945V13.1125V13.1306V13.1485V13.1665V13.1844V13.2023V13.2201V13.2379V13.2556V13.2734V13.291V13.3087V13.3263V13.3438V13.3613V13.3788V13.3963V13.4137V13.431V13.4483V13.4656V13.4829V13.5001V13.5172V13.5344V13.5514V13.5685V13.5855V13.6025V13.6194V13.6363V13.6531V13.6699V13.6867V13.7034V13.7201V13.7367V13.7533V13.7698V13.7864V13.8028V13.8193V13.8356V13.852V13.8683V13.8846V13.9008V13.917V13.9331V13.9492V13.9653V13.9813V13.9972V14.0132V14.0291V14.0449V14.0607V14.0765V14.0922V14.1078V14.1235V14.1391V14.1546V14.1701V14.1856V14.201V14.2163V14.2317V14.247V14.2622V14.2774V14.2925V14.3077V14.3227V14.3377V14.3527V14.3677V14.3825V14.3974V14.4122V14.4269V14.4416V14.4563V14.4709V14.4855V14.5V14.5145V14.529V14.5434V14.5577V14.572V14.5863V14.6005V14.6147V14.6288V14.6429V14.6569V14.6709V14.6848V14.6987V14.7126V14.7264V14.7401V14.7538V14.7675V14.7811V14.7947V14.8082V14.8217V14.8351V14.8485V14.8618V14.8751V14.8883V14.9015V14.9147V14.9278V14.9408V14.9538V14.9668V14.9797V14.9926V15.0054V15.0181V15.0309V15.0435V15.0561V15.0687V15.0812V15.0937V15.1061V15.1185V15.1308V15.1431V15.1554V15.1675V15.1797V15.1918V15.2038V15.2158V15.2277V15.2396V15.2514V15.2632V15.275V15.2867V15.2983V15.3099V15.3214V15.3329V15.3443V15.3557V15.3671V15.3784V15.3896V15.4008V15.4119V15.423V15.434V15.445V15.456V15.4668V15.4777V15.4885V15.4992V15.5099V15.5205V15.5311V15.5416V15.5521V15.5625V15.5728V15.5832V15.5934V15.6036V15.6138V15.6239V15.634V15.644V15.6539V15.6638V15.6736V15.6834V15.6932V15.7029V15.7125V15.7221V15.7316V15.7411V15.7505V15.7599V15.7692V15.7784V15.7876V15.7968V15.8059V15.8149V15.8239V15.8329V15.8418V15.8506V15.8594V15.8681V15.8767V15.8854V15.8939V15.9024V15.9109V15.9193V15.9276V15.9359V15.9441V15.9523V15.9604V15.9685V15.9765V15.9844V15.9923V16.0002C23 17.3733 22.455 18.8592 21.511 20.0055C20.5621 21.1578 19.1797 22.0002 17.5 22.0002H17.4743H17.4485H17.4227H17.397H17.3712H17.3455H17.3198H17.294H17.2683H17.2426H17.2169H17.1912H17.1655H17.1398H17.1142H17.0885H17.0628H17.0372H17.0116H16.9859H16.9603H16.9347H16.9091H16.8835H16.8579H16.8324H16.8068H16.7812H16.7557H16.7302H16.7046H16.6791H16.6536H16.6281H16.6026H16.5772H16.5517H16.5263H16.5008H16.4754H16.45H16.4246H16.3992H16.3738H16.3484H16.323H16.2977H16.2724H16.247H16.2217H16.1964H16.1711H16.1458H16.1206H16.0953H16.0701H16.0448H16.0196H15.9944H15.9692H15.9441H15.9189H15.8937H15.8686H15.8435H15.8184H15.7933H15.7682H15.7431H15.7181H15.693H15.668H15.643H15.618H15.593H15.568H15.5431H15.5181H15.4932H15.4683H15.4434H15.4185H15.3937H15.3688H15.344H15.3191H15.2943H15.2696H15.2448H15.22H15.1953H15.1706H15.1459H15.1212H15.0965H15.0718H15.0472H15.0226H14.998H14.9734H14.9488H14.9243H14.8997H14.8752H14.8507H14.8262H14.8018H14.7773H14.7529H14.7285H14.7041H14.6797H14.6553H14.631H14.6067H14.5824H14.5581H14.5338H14.5096H14.4853H14.4611H14.4369H14.4128H14.3886H14.3645H14.3404H14.3163H14.2922H14.2682H14.2442H14.2201H14.1962H14.1722H14.1482H14.1243H14.1004H14.0765H14.0526H14.0288H14.005H13.9812H13.9574H13.9336H13.9099H13.8862H13.8625H13.8388H13.8152H13.7915H13.7679H13.7444H13.7208H13.6973H13.6737H13.6502H13.6268H13.6033H13.5799H13.5565H13.5331H13.5098H13.4864H13.4631H13.4398H13.4166H13.3933H13.3701H13.3469H13.3238H13.3006H13.2775H13.2544H13.2314H13.2083H13.1853H13.1623H13.1393H13.1164H13.0935H13.0706H13.0477H13.0249H13.0021H12.9793H12.9565H12.9338H12.9111H12.8884H12.8657H12.8431H12.8205H12.7979H12.7753H12.7528H12.7303H12.7078H12.6854H12.663H12.6406H12.6182H12.5959H12.5736H12.5513H12.529H12.5068H12.4846H12.4624H12.4403H12.4182H12.3961H12.374H12.352H12.33H12.308H12.2861H12.2642H12.2423H12.2204H12.1986H12.1768H12.155H12.1333H12.1116H12.0899H12.0683H12.0466H12.025H12.0035H11.982H11.9605H11.939H11.9176H11.8962H11.8748H11.8534H11.8321H11.8108H11.7896H11.7684H11.7472H11.726H11.7049H11.6838H11.6627H11.6417H11.6207H11.5998H11.5788H11.5579H11.5371H11.5162H11.4954H11.4746H11.4539H11.4332H11.4125H11.3919H11.3713H11.3507H11.3302H11.3097H11.2892H11.2688H11.2484H11.228H11.2077H11.1874H11.1671H11.1469H11.1267H11.1065H11.0864H11.0663H11.0462H11.0262H11.0062H10.9863H10.9663H10.9465H10.9266H10.9068H10.887H10.8673H10.8476H10.8279H10.8083H10.7887H10.7691H10.7496H10.7301H10.7107H10.6913H10.6719H10.6526H10.6333H10.614H10.5948H10.5756H10.5564H10.5373H10.5182H10.4992H10.4802H10.4612H10.4423H10.4234H10.4046H10.3858H10.367H10.3483H10.3296H10.3109H10.2923H10.2737H10.2552H10.2367H10.2182H10.1998H10.1814H10.1631H10.1448H10.1265H10.1083H10.0901H10.072H10.0539H10.0358H10.0178H9.99985H9.98192H9.96402H9.94616H9.92835H9.91057H9.89284H9.87515H9.8575H9.83989H9.82233H9.8048H9.78732H9.76988H9.75248H9.73512H9.71781H9.70054H9.68331H9.66612H9.64897H9.63187H9.61481H9.5978H9.58082H9.56389H9.54701H9.53016H9.51336H9.49661H9.4799H9.46323H9.4466H9.43002H9.41348H9.39699H9.38054H9.36414H9.34778H9.33146H9.31519H9.29897H9.28279H9.26665H9.25056H9.23452H9.21852H9.20256H9.18666H9.17079H9.15497H9.1392H9.12348H9.1078H9.09216H9.07658H9.06104H9.04554H9.03009H9.01469H8.99934H8.98403H8.96877H8.95356H8.93839H8.92327H8.9082H8.89317H8.8782H8.86327H8.84839H8.83355H8.81877H8.80403H8.78934H8.7747H8.76011H8.74557H8.73107H8.71662H8.70223H8.68788H8.67358H8.65933H8.64513H8.63097H8.61687H8.60282H8.58881H8.57486H8.56096H8.5471H8.5333H8.51955H8.50584H8.49219H8.47859H8.46503H8.45153H8.43808H8.42468H8.41133H8.39804H8.38479H8.37159H8.35845H8.34536H8.33232H8.31933H8.30639H8.29351H8.28067H8.26789H8.25516H8.24249H8.22986H8.21729H8.20477H8.1923H8.17989H8.16753H8.15522H8.14297H8.13076H8.11862H8.10652H8.09448H8.08249H8.07056H8.05868H8.04686H8.03508H8.02337H8.0117H8.00009H7.98854H7.97704H7.96559H7.9542H7.94287H7.93159H7.92036H7.90919H7.89808H7.88702H7.87601H7.86507H7.85417H7.84334H7.83255H7.82183H7.81116H7.80055H7.78999H7.77949H7.76905H7.75866H7.74833H7.73806H7.72784H7.71768H7.70758H7.69754H7.68755H7.67762H7.66775H7.65793H7.64817H7.63847H7.62883H7.61925H7.60972H7.60026H7.59085H7.5815H7.57221H7.56298H7.5538H7.54469H7.53563H7.52663H7.5177H7.50882H7.5C6.35229 22.0002 4.98443 21.4366 3.90803 20.4275C2.81923 19.4067 2 17.9041 2 16.0002V7.00011V7.0001C1.99998 5.86448 2.55375 4.38447 3.48031 3.1932C4.41172 1.99569 5.7925 1.00018 7.49998 1.0001C11.128 0.999929 14.2229 1.00002 16.0936 1.00007L16.0947 1.00007ZM19.2359 5.7481C19.2359 6.27277 18.8106 6.6981 18.2859 6.6981C17.7613 6.6981 17.3359 6.27277 17.3359 5.7481C17.3359 5.22343 17.7613 4.7981 18.2859 4.7981C18.8106 4.7981 19.2359 5.22343 19.2359 5.7481ZM8 11.5C8 9.01472 10.0147 7 12.5 7C14.9853 7 17 9.01472 17 11.5C17 13.9853 14.9853 16 12.5 16C10.0147 16 8 13.9853 8 11.5ZM12.5 6C9.46243 6 7 8.46243 7 11.5C7 14.5376 9.46243 17 12.5 17C15.5376 17 18 14.5376 18 11.5C18 8.46243 15.5376 6 12.5 6Z" fill="currentColor"/>
</svg>
