<svg width="19" height="19" viewBox="0 0 19 19" fill="none" xmlns="http://www.w3.org/2000/svg">
<g opacity="0.5">
<rect width="19" height="19" rx="9.5" fill="currentColor"/>
<path d="M8.64795 11.8828H9.7168V13H8.64795V11.8828ZM6.83789 7.58057C6.83789 6.80713 7.05632 6.18587 7.49316 5.7168C7.93001 5.24414 8.52979 5.00781 9.29248 5.00781C9.99788 5.00781 10.5618 5.21012 10.9844 5.61475C11.4105 6.01579 11.6235 6.52962 11.6235 7.15625C11.6235 7.53581 11.5448 7.84375 11.3872 8.08008C11.2332 8.31641 10.9199 8.66374 10.4473 9.12207C10.1035 9.45508 9.87972 9.73796 9.77588 9.9707C9.67562 10.1999 9.62549 10.54 9.62549 10.9912H8.66943C8.66943 10.4792 8.73031 10.0674 8.85205 9.75586C8.9738 9.44076 9.24056 9.08089 9.65234 8.67627L10.082 8.25195C10.2109 8.13021 10.3148 8.00309 10.3936 7.87061C10.5368 7.63786 10.6084 7.39616 10.6084 7.14551C10.6084 6.7946 10.5028 6.49023 10.2915 6.23242C10.0838 5.97461 9.73828 5.8457 9.25488 5.8457C8.6569 5.8457 8.24333 6.06771 8.01416 6.51172C7.88525 6.75879 7.81185 7.11507 7.79395 7.58057H6.83789Z" fill="#333333"/>
</g>
</svg>
