<svg width="16" height="24" viewBox="0 0 16 24" fill="none" xmlns="http://www.w3.org/2000/svg">
<path d="M0 3.25767H1.17791M16 3.25767H14.8221M14.8221 3.25767L13.2515 21.908C13.2515 22.2679 13.0356 22.9877 12.1718 22.9877C11.308 22.9877 6.24949 22.9877 3.82822 22.9877C3.53374 22.9877 2.92515 22.7718 2.84663 21.908C2.7681 21.0442 1.70143 9.11452 1.17791 3.25767M14.8221 3.25767H10.6994M1.17791 3.25767H5.39877M5.39877 5.1227V20.9264M8.04908 5.1227V20.9264M10.8957 5.1227V20.9264M5.39877 3.25767V1.78528C5.36605 1.52352 5.49693 1 6.28221 1C7.06748 1 9.03067 1 9.91411 1C10.1759 1 10.6994 1.15706 10.6994 1.78528C10.6994 2.4135 10.6994 3.02863 10.6994 3.25767M5.39877 3.25767H10.6994" stroke="#1E1E1E"/>
</svg>
