<svg width="16" height="17" viewBox="0 0 16 17" fill="none" xmlns="http://www.w3.org/2000/svg">
<path d="M2 2.54018H2.80982M13 2.54018H12.1902M12.1902 2.54018L11.1104 15.2634C11.1104 15.5089 10.962 16 10.3681 16C9.77423 16 6.29652 16 4.6319 16C4.42945 16 4.01104 15.8527 3.95706 15.2634C3.90307 14.6741 3.16973 6.53571 2.80982 2.54018M12.1902 2.54018H9.35583M2.80982 2.54018H5.71166M5.71166 3.8125V14.5937M7.53374 3.8125V14.5937M9.4908 3.8125V14.5937M5.71166 2.54018V1.53571C5.68916 1.35714 5.77914 1 6.31902 1C6.8589 1 8.20859 1 8.81595 1C8.99591 1 9.35583 1.10714 9.35583 1.53571C9.35583 1.96429 9.35583 2.38393 9.35583 2.54018M5.71166 2.54018H9.35583" stroke="#333333" stroke-width="0.5"/>
</svg>
