<svg width="96" height="97" viewBox="0 0 96 97" fill="none" xmlns="http://www.w3.org/2000/svg">
<path d="M94.2951 30.8926C94.2951 30.8475 94.2951 30.8136 94.2951 30.7685C94.2838 30.6104 94.2838 30.4072 94.25 30.1701C93.9677 27.6524 93.2903 25.1685 92.2403 22.8089C91.0436 20.1219 89.4065 17.6606 87.3743 15.4929C83.4792 11.3381 78.6244 8.52689 72.9455 7.11562C71.3536 6.72047 69.7052 6.48338 67.9101 6.37048C67.1649 6.32531 66.5101 6.30273 65.9117 6.30273C65.4488 6.30273 65.0311 6.31402 64.6021 6.3366C61.4295 6.52854 58.4151 7.20595 55.6377 8.38012C53.4926 9.28333 51.5394 10.4236 49.8233 11.7897C48.491 11.5188 47.1136 11.3156 45.7362 11.2027C44.6185 11.101 43.7492 11.0672 42.925 11.0672C42.8347 11.0672 42.7331 11.0672 42.6428 11.0672C37.788 11.1236 33.2155 12.2188 29.0494 14.2961C26.4075 15.6171 24.0027 17.3445 21.8915 19.4332C20.0738 21.2283 18.5722 23.2605 17.3754 25.496C16.9351 25.3831 16.4722 25.3266 15.998 25.3266C15.4222 25.3266 14.8577 25.4169 14.3045 25.575C13.1416 25.925 12.0578 26.5572 11.0755 27.4604C10.2175 28.2508 9.49492 29.2104 8.85138 30.3846C7.95946 32.0329 7.36108 33.7942 7.05625 35.6458C6.80787 35.8264 6.58207 36.0409 6.35626 36.2667C5.73531 36.9329 5.2837 37.7345 4.96758 38.6941C4.60629 39.8231 4.47081 41.0312 4.57242 42.2731C4.69661 43.786 5.04661 45.265 5.6224 46.6763C6.24336 48.2117 7.24818 49.623 8.59171 50.8649C9.59653 51.7907 10.7594 52.6036 12.0465 53.2697C13.232 53.8794 14.361 54.3987 15.4448 54.839C15.4448 54.8616 15.4335 54.8842 15.4335 54.8955C15.1739 56.2729 14.9029 57.3906 14.5981 58.418C14.3497 59.2196 14.0674 59.7954 13.7174 60.2244C13.6836 60.2583 13.6497 60.2922 13.6271 60.326C13.0965 60.326 12.5997 60.3373 12.0578 60.3825C10.2514 60.5292 8.73848 61.5341 7.92559 63.1598C7.8014 63.4195 7.69979 63.6566 7.62076 63.8485C7.59818 63.905 7.5756 63.9614 7.55302 64.0179C7.14657 64.955 6.60465 65.8808 6.14175 66.6598L5.98369 66.9195C5.66756 67.4275 5.35144 67.9581 5.04661 68.5339C4.23372 70.013 3.72566 71.4242 3.49986 72.8242C3.39825 73.1403 3.3418 73.479 3.3418 73.829V75.0709C3.3418 75.4887 3.42083 75.9064 3.57889 76.2903C3.72566 76.8435 3.96275 77.3741 4.27888 77.916C5.20467 79.4741 6.72884 80.4676 8.55784 80.7047C8.86267 80.7499 9.1788 80.7612 9.48363 80.7612C10.782 80.7612 12.0578 80.4112 13.39 79.6886C14.169 79.2596 14.8916 78.7176 15.569 78.0289C15.8513 78.537 16.1335 78.9886 16.3932 79.3951C17.6125 81.2692 19.1254 82.9627 21.0447 84.5885C23.4495 86.6207 25.8882 88.2239 28.5075 89.4771C31.6236 90.9674 34.8413 91.9723 38.0815 92.4803C39.0186 92.6271 39.888 92.7287 40.7347 92.7852C40.746 92.7852 40.7573 92.7851 40.7686 92.7964C40.9492 92.8303 41.1412 92.8416 41.3218 92.8416H45.3298C45.5443 92.8416 45.7588 92.819 45.9733 92.7739C46.0072 92.7739 46.0411 92.7739 46.075 92.7739C46.1879 92.7626 46.3346 92.7626 46.504 92.74C51.799 92.2206 56.5748 90.5045 60.6957 87.6481C64.4779 85.0288 67.4133 81.6418 69.423 77.5999C70.5858 75.2516 71.3649 72.6887 71.7149 69.9791C71.7261 69.9226 71.7261 69.8662 71.7374 69.7984C72.2116 70.25 72.7422 70.6678 73.3068 71.0291C74.4019 71.7178 75.6777 72.079 77.089 72.079C77.1906 72.079 77.2809 72.079 77.3825 72.079C77.6196 72.0678 77.8228 72.0452 77.9583 72.0339C77.9922 72.0339 78.026 72.0226 78.0599 72.0226C81.1647 71.7516 83.3663 69.3017 84.0888 67.1453C84.6646 65.4517 84.6985 63.6679 84.213 61.8615C83.6259 59.6599 82.4743 57.6841 80.8147 56.0019C80.3066 55.4938 79.776 55.0084 79.2228 54.5681C81.9663 53.4955 84.4614 51.9713 86.6517 50.0181C90.5807 46.5182 93.0645 42.0925 94.0354 36.8877C94.1709 36.1538 94.3064 35.3522 94.329 34.5055C94.3516 34.3474 94.3629 34.1894 94.3629 34.02V31.4684C94.3516 31.2765 94.3403 31.0846 94.2951 30.8926ZM43.896 40.7828C43.6363 40.9296 42.496 41.5618 42.1799 41.7425C41.9541 41.3021 41.7508 40.7602 41.7508 39.586C41.7734 39.3941 41.9541 38.7844 42.6315 38.0957C42.6766 38.0506 42.7331 37.9941 42.7782 37.949C43.1621 38.8409 43.5685 39.7328 43.9976 40.6134C43.9524 40.6812 43.9298 40.7376 43.896 40.7828Z" fill="white" stroke="black" stroke-width="0.0752676" stroke-miterlimit="10"/>
<path d="M69.2407 49.1151C69.2407 49.1151 70.1552 49.5554 71.6229 49.7135C74.1406 49.9957 78.2953 49.4538 82.2469 44.4748C88.5016 36.5943 85.8259 32.6089 85.8259 32.6089C85.8259 32.6089 84.2791 30.0912 79.9776 30.5767C75.6647 31.0622 72.5825 27.6525 72.5825 27.6525C72.5825 27.6525 68.1116 25.2139 64.2956 26.4332C60.4795 27.6525 59.1699 28.3864 57.228 30.6557C57.228 30.6557 54.3038 30.4977 50.8829 28.3751C47.462 26.2526 45.2717 30.6557 45.2717 30.6557C45.2717 30.6557 45.4298 35.454 49.7426 35.6121C49.7426 35.6121 49.991 38.2991 51.5264 38.3782C51.5264 38.3782 49.0878 41.4717 42.2572 44.8023C35.4267 48.1328 33.3945 48.8667 26.7333 47.9748C20.0721 47.0829 18.8528 40.5797 18.8528 40.5797C18.8528 40.5797 18.1189 36.5153 20.6366 33.1847C20.6366 33.1847 21.6979 30.9944 17.8705 31.3105C17.8705 31.3105 17.0577 27.2461 13.8851 29.5267C10.7126 31.8073 10.3062 35.7814 9.89971 38.3104C9.89971 38.3104 8.11587 37.7459 7.78846 40.4217C7.46104 43.1087 8.52232 47.0829 10.4755 48.5054C12.4287 49.928 18.7625 52.5247 18.7625 52.5247C18.7625 52.5247 18.277 58.6214 17.4641 59.4343C16.6512 60.2472 16.4932 64.4697 11.6158 63.9052C11.6158 63.9052 9.74165 65.8584 9.09811 68.218C9.09811 68.218 6.33203 72.2034 6.33203 73.4227C6.33203 74.6421 6.49009 78.7856 10.5545 77.0017C14.619 75.2179 15.1045 71.797 15.1045 71.797C15.1045 71.797 19.4963 76.2679 25.514 74.8905C31.5316 73.5131 34.0493 72.226 36.3186 69.4712C36.3186 69.4712 41.9298 72.7002 49.5732 70.668C57.2167 68.6357 57.3747 68.5567 61.3601 65.4632C61.3601 65.4632 66.8923 68.1503 72.0067 64.5713C72.0067 64.5713 74.118 69.2115 77.3696 68.6357C79.3227 68.2857 80.3727 65.8696 80.3727 65.8696C80.3727 65.8696 81.2872 61.0488 76.8728 57.3343C73.0793 54.1392 69.2294 54.3311 69.2294 54.3311C69.2294 54.3311 71.3406 53.5973 71.589 50.2667C71.6003 50.2441 72.3342 49.6909 69.2407 49.1151Z" fill="#F16821"/>
<path d="M17.2852 73.4663C17.2852 73.4663 17.6577 79.8001 28.4172 85.5016C36.9639 90.029 43.1508 89.6338 45.4202 89.2499C46.1089 89.137 46.7976 89.0467 47.4863 88.9677C49.9814 88.6854 56.5297 87.3871 62.2538 81.4259C69.152 74.2454 67.8424 65.6762 67.6504 64.6149C67.6391 64.5359 67.6279 64.4681 67.6279 64.3891C67.5714 63.4407 66.973 56.915 62.0731 53.0877C57.478 49.4974 51.3475 47.6119 49.812 47.1716C49.5862 47.1039 49.3604 47.0813 49.1346 47.1039C47.7008 47.1942 41.7396 47.2281 38.6912 41.8201C38.4767 41.4475 38.3864 41.0298 38.4316 40.6008C38.6235 38.7492 39.8203 33.7138 46.9443 34.7525C46.9443 34.7525 43.2976 29.9993 47.5201 28.2832C47.8363 28.159 48.1862 28.1139 48.525 28.159C49.5749 28.2945 52.0588 28.7348 53.9555 30.0896C56.4168 31.8509 57.8619 29.9542 57.8619 29.9542C57.8619 29.9542 60.436 26.522 66.036 25.9913C65.7989 24.8172 60.0296 17.964 50.2411 15.7399C36.7945 12.6803 33.0801 16.4737 32.1994 16.7899C32.143 16.8125 32.0865 16.8237 32.0301 16.8463C31.1043 17.0947 22.4673 19.6689 18.5045 30.8122C18.5045 30.8122 20.9883 30.8348 21.0222 32.6186C21.0335 33.2396 20.7286 33.8154 20.2432 34.188C19.6335 34.6734 18.6061 35.6557 18.1884 37.1799C18.1884 37.1799 16.3481 42.6781 21.6319 49.5877C26.9156 56.4973 38.7025 57.2311 38.7025 57.2311C38.7025 57.2311 45.7702 57.5585 47.1588 63.5762C48.333 68.6906 43.467 71.2873 41.9767 71.9535C41.717 72.0664 41.4347 72.1341 41.1412 72.1341C39.888 72.1228 36.1961 71.9873 35.1913 70.6438C35.1913 70.6438 30.4495 73.9405 26.8253 74.7196C22.3996 75.6679 17.2852 73.4663 17.2852 73.4663Z" fill="#1A3263"/>
<path opacity="0.16" d="M71.273 53.0092C71.273 53.0092 82.168 52.2754 87.6099 43.2545C93.0517 34.2337 89.3937 26.1048 89.3937 26.1048C89.3937 26.1048 86.797 17.9759 78.1713 13.0986C69.5457 8.22126 60.7845 10.3325 60.7845 10.3325C60.7845 10.3325 52.4072 11.3938 46.8864 19.6807C41.3655 27.9677 45.4186 37.6433 45.4186 37.6433C45.4186 37.6433 46.4799 43.2545 53.3895 46.9916C60.299 50.7286 62.5006 52.0383 71.273 53.0092Z" fill="#3C4861"/>
<path d="M64.6113 13.3919C70.9903 11.8903 76.8611 13.4032 78.1934 16.7677C78.3853 17.2531 78.4982 18.0773 78.1143 18.5063C77.516 19.1725 76.274 19.3192 75.2353 18.6983C72.7741 17.2193 72.9999 14.4871 64.6113 13.3919Z" fill="#F5F5F5"/>
<path d="M64.3887 54.1954C65.3596 53.9018 66.3532 53.7212 67.3693 53.755C69.9886 53.8454 72.4498 54.4889 74.7304 55.7873C75.8369 56.4195 76.8868 57.1534 77.8013 58.0453C79.0207 59.2195 79.9578 60.5969 80.4997 62.2113C80.8948 63.3629 81.019 64.5484 80.7255 65.7564C80.432 66.9306 79.7207 67.8 78.7159 68.4322C78.3884 68.6467 78.0159 68.7483 77.6207 68.8161C77.0901 68.9064 76.5707 68.9403 76.0288 68.8725C75.4982 68.7935 75.0127 68.6354 74.5611 68.3419C74.0982 68.0371 73.6692 67.6871 73.2966 67.2806C72.7208 66.6597 72.3482 65.9484 72.2692 65.0903C72.1676 65.0339 72.1111 65.1129 72.0547 65.1581C70.7902 66.0726 69.3563 66.5693 67.8209 66.75L67.9676 66.1742C70.6434 65.7226 71.716 64.7178 72.495 64.0516C72.5853 63.9726 72.6869 63.8823 72.7885 63.8145C72.9127 63.7355 73.0482 63.7468 73.1385 63.8371C73.2176 63.9274 73.2289 64.0629 73.1498 64.1871C73.0821 64.2887 72.9918 64.3791 72.8901 64.4694C72.7434 64.5936 72.6982 64.729 72.7321 64.921C72.8337 65.7226 73.1724 66.4 73.7482 66.9645C74.1546 67.3596 74.5837 67.7322 75.0917 68.0032C75.7127 68.3419 76.3788 68.4096 77.0675 68.3419C77.2256 68.3306 77.3949 68.308 77.553 68.2741C78.332 68.1387 78.9191 67.6983 79.4271 67.1226C80.0368 66.4226 80.2965 65.5984 80.3416 64.6839C80.3868 63.5887 80.1384 62.5501 79.6755 61.5678C78.9417 59.9759 77.8578 58.6662 76.4578 57.6163C75.7014 57.0518 74.9224 56.4985 74.0869 56.0582C72.5514 55.2566 70.9257 54.7486 69.2208 54.4663C68.5773 54.3647 67.9225 54.3083 67.2789 54.2857C66.4999 54.2631 66.1386 54.297 65.6645 54.3308C65.529 54.3421 65.4048 54.3647 65.2693 54.3421L64.3887 54.1954Z" fill="black"/>
<path d="M86.5852 32.9468C86.4948 32.0775 86.269 31.242 85.8739 30.463C85.5013 29.7065 84.7787 29.3678 83.9207 29.4582C83.4465 29.5033 82.9949 29.6388 82.5433 29.763C81.8094 29.9662 81.0756 30.192 80.3078 30.3275C79.5175 30.463 78.7385 30.5194 77.9369 30.3614C77.1015 30.2033 76.3337 29.8646 75.6112 29.4356C74.7644 28.9275 73.9289 28.3743 73.0935 27.855C72.0096 27.1775 70.8919 26.5792 69.6613 26.2066C68.2726 25.7889 66.8726 25.6647 65.4275 25.834C64.8742 25.9018 64.321 26.026 63.7791 26.1276C62.2098 26.4211 60.7872 27.0534 59.5001 28.013C58.7889 28.5437 58.1905 29.2098 57.5582 29.8194C57.4115 29.9549 57.2986 30.113 57.1857 30.2823C57.1066 30.3952 57.0276 30.4404 56.8921 30.4291C55.6728 30.3162 54.4873 30.0339 53.4148 29.3904C53.0761 29.1872 52.7261 28.9953 52.3761 28.8146C51.3712 28.3291 50.3551 27.8775 49.2374 27.7872C48.3794 27.7082 47.5665 27.7985 46.7762 28.1598C46.0084 28.5098 45.5117 29.0969 45.2859 29.9098C45.173 30.3049 45.1165 30.7114 45.0939 31.1065C45.0375 32.0888 45.2181 33.0145 45.8391 33.8049C46.5391 34.6968 47.4423 35.2952 48.4584 35.7693C48.8648 35.9613 49.2939 36.0968 49.7342 36.2209C49.8358 36.2435 49.9374 36.2661 49.8697 36.4129C49.7003 36.7855 49.7793 37.1354 49.9374 37.4854C50.1293 37.8919 50.468 38.1628 50.8632 38.3661C50.9874 38.4338 51.1229 38.4903 51.3035 38.5806C51.2245 38.637 51.1906 38.6709 51.1567 38.6935C50.039 39.608 48.8761 40.466 47.6907 41.2902C46.4713 42.137 42.8133 44.2821 41.5488 45.0611L41.8988 45.3547C43.9536 44.2031 47.2842 42.3741 49.1358 40.9176C49.9826 40.2515 50.8632 39.6306 51.6083 38.8628C51.7099 38.7612 51.8116 38.7386 51.947 38.7838C52.9406 39.0548 53.9454 39.0773 54.9502 38.9419C56.8357 38.6935 58.4727 37.8806 59.963 36.7064C60.0534 36.6387 60.1437 36.5596 60.2001 36.4467C60.2453 36.3564 60.2453 36.2774 60.1888 36.1871C60.1324 36.108 60.0421 36.0855 59.9517 36.0968C59.8501 36.1193 59.7598 36.1645 59.6808 36.2209C59.4663 36.3564 59.2518 36.4919 59.0372 36.6274C58.2018 37.1693 57.3099 37.6096 56.3502 37.9032C55.0744 38.2983 53.7873 38.4112 52.4664 38.1741C51.9019 38.0725 51.3487 37.9032 50.8632 37.5645C50.6261 37.3951 50.4567 37.1919 50.3777 36.8984C50.2874 36.5596 50.4567 36.3677 50.8067 36.4242C51.5067 36.5371 52.2067 36.5258 52.918 36.5145C53.2228 36.5032 53.5277 36.458 53.8212 36.3564C53.9341 36.3113 54.0357 36.2322 54.0244 36.0968C54.0131 35.95 53.9002 35.9161 53.776 35.8935C53.5502 35.8597 53.3131 35.8484 53.0873 35.8597C52.4099 35.871 51.7325 35.8484 51.0551 35.7468C49.7116 35.5322 48.4471 35.1032 47.3294 34.2903C46.7536 33.8726 46.2455 33.3758 45.9858 32.6984C45.6246 31.7275 45.6923 30.7565 46.0197 29.7969C46.1552 29.4017 46.4262 29.063 46.7874 28.8485C47.0358 28.7017 47.3068 28.5775 47.6003 28.5098C48.4019 28.3179 49.1922 28.3517 49.9826 28.5662C50.9987 28.8372 51.947 29.3001 52.8503 29.8307C54.047 30.5307 55.3341 30.9484 56.7115 31.0726C58.1227 31.1968 59.4889 31.0501 60.7872 30.4517C61.3291 30.2033 61.8598 29.9323 62.334 29.5598C62.413 29.5033 62.492 29.4469 62.5372 29.3453C62.5711 29.2549 62.5372 29.1985 62.4469 29.1872C62.3001 29.1759 62.1759 29.2549 62.0517 29.2888C61.8936 29.334 61.7356 29.3791 61.5888 29.4469C60.5163 29.9888 59.4098 30.3727 58.2244 30.4178C58.055 30.4291 57.8857 30.4404 57.705 30.4065C57.7502 30.2598 57.8631 30.192 57.9421 30.113C57.9986 30.0565 58.055 29.9888 58.1227 29.9323C58.5856 29.5146 59.0372 29.0743 59.5114 28.6678C60.1098 28.1485 60.7985 27.7759 61.5098 27.4372C61.9501 27.2227 62.413 27.0534 62.8759 26.9405C63.3614 26.8163 63.8468 26.7259 64.3323 26.6356C65.371 26.4324 66.421 26.3421 67.4823 26.4437C68.8935 26.5792 70.1919 27.0308 71.4338 27.6856C72.4386 28.2162 73.3983 28.8372 74.3579 29.4356C75.1144 29.9098 75.8934 30.3501 76.7289 30.6775C77.4853 30.9597 78.2643 31.0952 79.0659 31.0839C79.8675 31.0726 80.6578 30.9259 81.4369 30.7226C81.5159 30.7001 81.5949 30.6775 81.674 30.6662C81.8207 30.6436 81.8433 30.6662 81.8546 30.813C81.8546 30.8355 81.8546 30.8694 81.8546 30.892C81.8772 31.3436 82.0691 31.7049 82.4078 31.9871C82.8256 32.3371 83.311 32.5065 83.8191 32.6307C84.4626 32.7887 84.9933 33.1162 85.3997 33.6581C85.8174 34.2226 86.0771 34.8323 86.0207 35.5435C85.9755 36.1419 85.8739 36.729 85.7384 37.3048C85.2191 39.4838 84.2481 41.437 82.9159 43.2321C82.1481 44.2708 81.2449 45.1853 80.274 46.0546C79.1111 47.0933 77.8353 47.9514 76.424 48.6062C75.2499 49.1481 73.9967 49.4304 72.7096 49.4756C71.6257 49.5094 70.5645 49.3852 69.5258 49.0917C69.4355 49.0691 69.3338 49.0352 69.2322 49.0465C69.1532 49.0578 69.0855 49.0804 69.0629 49.1594C69.0403 49.2385 69.0855 49.2949 69.1419 49.3401C69.2209 49.3965 69.3226 49.4304 69.4129 49.4643C70.0338 49.6901 70.6887 49.803 71.3322 49.9159C71.4564 49.9385 71.5354 50.0514 71.5128 50.1755C71.4112 50.7288 71.287 51.2707 71.0725 51.79C71.0499 51.8578 70.9822 51.9368 71.0499 52.0158C71.1403 52.0158 71.1516 51.9481 71.1854 51.8916C71.5015 51.3723 71.7499 50.8191 71.908 50.232C71.9532 50.0852 72.0886 49.9836 72.2354 49.9836C72.7548 49.9836 73.2628 49.9949 73.7709 49.9272C74.8096 49.7804 75.8144 49.5207 76.774 49.0691C78.7047 48.1659 80.3417 46.8562 81.8433 45.3659C82.4191 44.7902 82.9385 44.1466 83.4239 43.4805C84.6094 41.8547 85.5126 40.0935 86.0658 38.1516C86.3707 37.0903 86.5852 36.029 86.5965 34.9339C86.6529 34.2565 86.6529 33.6016 86.5852 32.9468Z" fill="black"/>
<path d="M70.4734 33.2852C71.1734 33.3077 71.7379 33.5222 72.1782 34.019C72.2572 34.1093 72.3363 34.1997 72.3701 34.3126C72.404 34.4255 72.404 34.5271 72.3024 34.6061C72.2008 34.6738 72.0992 34.6626 71.9975 34.5948C71.9524 34.5609 71.9185 34.5271 71.8846 34.4819C71.4443 33.9061 70.5298 33.6464 69.6944 34.019C69.3895 34.1545 69.1299 34.369 68.8928 34.6061C68.8363 34.6626 68.7799 34.719 68.7234 34.7755C68.6557 34.8319 68.5879 34.8771 68.5089 34.8206C68.4299 34.7642 68.4299 34.6851 68.4524 34.6061C68.5202 34.3916 68.6331 34.2109 68.7911 34.0529C69.2428 33.5335 69.8411 33.319 70.4734 33.2852Z" fill="black"/>
<path d="M78.637 43.8983C77.5418 43.8757 76.6499 43.6612 75.9499 43.1645C75.8257 43.0741 75.7128 42.9838 75.6451 42.8709C75.5886 42.758 75.5886 42.6564 75.758 42.5774C75.9161 42.5096 76.0854 42.5209 76.2322 42.5887C76.2999 42.6225 76.3564 42.6564 76.4128 42.7016C77.1128 43.2774 78.5579 43.537 79.8676 43.1645C80.3531 43.029 80.7595 42.8145 81.1321 42.5774C81.2224 42.5209 81.3127 42.4645 81.4031 42.408C81.5047 42.3516 81.6176 42.3064 81.7418 42.3629C81.866 42.4193 81.866 42.4983 81.8321 42.5774C81.7305 42.7919 81.5385 42.9725 81.3014 43.1306C80.5789 43.6499 79.6305 43.8532 78.637 43.8983Z" fill="black"/>
<path d="M36.1973 69.3916C36.1973 69.3916 39.5843 71.3448 43.231 71.2883" stroke="black" stroke-width="0.30107" stroke-miterlimit="10"/>
<path d="M40.2613 62.1767C40.1709 62.1541 40.1145 62.2219 40.0693 62.3009C40.0242 62.3912 39.9677 62.4929 39.9338 62.5945C39.8661 62.7525 39.8096 62.9106 39.7532 63.0799C38.7032 65.9363 36.9984 68.3524 34.6952 70.3282C33.013 71.7733 31.1388 72.8798 29.0614 73.6588C27.6276 74.1894 26.1599 74.5507 24.6357 74.6523C23.5857 74.7201 22.547 74.7201 21.4971 74.5507C20.3342 74.3701 19.2052 74.0539 18.1326 73.5459C16.902 72.9701 15.8068 72.1911 14.8697 71.2088C14.7681 71.0959 14.6552 70.983 14.5423 70.8814C14.452 70.8024 14.3504 70.7685 14.2488 70.8588C14.1472 70.9379 14.1472 71.0508 14.2036 71.1524C14.2375 71.2201 14.2827 71.2766 14.3278 71.333C14.4746 71.5024 14.6214 71.6717 14.7794 71.8411C14.9262 71.9991 14.9262 71.9991 14.8133 72.1911C14.3504 72.9927 13.8198 73.7604 13.2665 74.5056C12.8827 75.0136 12.4762 75.4878 11.9682 75.8829C11.3134 76.4023 10.6134 76.7974 9.80048 77.0007C9.24726 77.1362 8.70533 77.1136 8.16341 76.9781C7.76825 76.8765 7.46342 76.6507 7.21504 76.3346C6.71827 75.7136 6.58279 75.0136 6.66182 74.2459C6.7973 73.0265 7.15859 71.8862 7.74567 70.8137C8.12954 70.125 8.52469 69.4476 8.93114 68.7815C9.49564 67.8444 10.0489 66.896 10.4892 65.9025C10.6359 65.5751 10.7714 65.2364 10.9069 64.9089C11.0198 64.638 11.223 64.4799 11.5053 64.4009C11.6408 64.367 11.7875 64.3444 11.9343 64.3444C12.4311 64.3331 12.9278 64.3219 13.4246 64.3106C14.0907 64.2993 14.6778 64.096 15.231 63.7348C15.931 63.2606 16.4165 62.6058 16.8568 61.9058C17.3762 61.0703 17.681 60.1558 17.9407 59.2187C18.3584 57.7397 18.6858 56.2268 18.9455 54.714C19.0584 54.0478 19.1713 53.3817 19.16 52.7043C19.16 52.5011 19.081 52.3769 18.9116 52.2866C18.8326 52.2414 18.7536 52.2075 18.6632 52.1737C18.3245 52.0608 17.9858 51.9704 17.6584 51.835C16.1117 51.2366 14.5762 50.5818 13.1198 49.7802C12.2279 49.2834 11.3811 48.7076 10.6472 47.9963C9.72145 47.1044 8.9763 46.077 8.56985 44.8351C8.15212 43.5819 7.83599 42.3061 7.98277 40.9626C8.0618 40.2626 8.24244 39.5965 8.66017 39.0207C8.80694 38.8174 8.99888 38.6594 9.23597 38.5916C9.47306 38.5239 9.61983 38.5578 9.59725 38.84C9.57467 39.2126 9.61983 39.5852 9.64242 39.9465C9.67629 40.4319 9.73274 40.9174 9.85693 41.3916C9.87951 41.4819 9.91338 41.5835 9.95854 41.6738C10.0489 41.8206 10.1731 41.8206 10.2408 41.6626C10.2972 41.5384 10.286 41.4029 10.2747 41.2787C10.2069 40.59 10.1618 39.89 10.1731 39.2013C10.1843 38.7271 10.1956 38.2642 10.2295 37.79C10.2747 37.203 10.3198 36.6159 10.4327 36.0401C10.7376 34.5046 11.2908 33.0595 12.1262 31.7272C12.702 30.8015 13.4585 30.0676 14.4181 29.5482C14.8923 29.2999 15.3891 29.1644 15.931 29.2773C16.8455 29.4579 17.2745 30.1128 17.5681 30.9144C17.6132 31.0385 17.5568 31.1176 17.4439 31.1853C17.2407 31.3095 17.06 31.4676 16.902 31.6482C16.8342 31.7272 16.7778 31.8063 16.7439 31.8966C16.7213 31.9643 16.7326 32.0208 16.7778 32.0772C16.8342 32.1337 16.902 32.145 16.981 32.1111C17.1052 32.0659 17.1955 31.9869 17.2971 31.8966C17.6245 31.6031 18.0084 31.4901 18.4374 31.4563C18.6068 31.445 18.7761 31.445 18.9568 31.4563C19.5777 31.4676 20.0406 31.7498 20.3793 32.2579C20.4584 32.3708 20.5035 32.495 20.5261 32.6305C20.5938 33.0821 20.4471 33.4433 20.1761 33.782C19.7358 34.3353 19.3971 34.3917 18.8213 35.024C17.9971 35.9272 17.5342 37.1013 17.4778 38.3207C17.4778 38.3771 17.4778 38.4336 17.4778 38.49C17.4778 38.5013 17.4778 38.5013 17.4778 38.5126C17.4665 38.8287 17.4778 39.1336 17.5003 39.4497C17.5116 39.5739 17.5229 39.7094 17.5342 39.8336C17.7826 43.0851 18.8665 45.806 19.0245 45.8286C19.1035 45.8399 19.4987 45.6818 19.5664 45.727C19.6906 45.8286 18.6294 43.4464 18.3245 41.7867C18.2342 41.3239 18.1665 40.3303 18.11 39.6416C18.0423 38.8287 18.0987 38.0271 18.2681 37.2255V37.2142C18.3471 36.853 18.539 36.4917 18.7761 36.1643C19.2164 35.5094 19.7697 34.9449 20.4019 34.4595C20.5713 34.324 20.7293 34.1998 20.8196 34.0756C21.1696 33.6127 21.3051 33.0933 21.2148 32.5176C21.1358 32.0095 20.8422 31.6143 20.4697 31.2982C19.8826 30.8127 19.1939 30.7111 18.4487 30.824C18.0987 30.8805 18.11 30.8805 17.9971 30.5418C17.76 29.8079 17.3536 29.187 16.6197 28.8483C16.01 28.566 15.3891 28.5096 14.7456 28.7241C13.7407 29.0515 12.9504 29.6724 12.273 30.4515C11.6408 31.174 11.2005 32.0208 10.8053 32.8901C10.3198 33.9401 9.99241 35.0465 9.81177 36.1868C9.73274 36.7175 9.65371 37.2594 9.64242 37.8013C9.64242 37.9142 9.64242 38.0158 9.47306 38.0046C9.01017 37.9707 8.6263 38.1626 8.31018 38.4787C7.91502 38.8965 7.68922 39.4045 7.53116 39.9465C7.29407 40.8158 7.28278 41.6964 7.39568 42.5771C7.47471 43.2206 7.64406 43.8528 7.81341 44.4851C8.20857 45.9189 8.95372 47.1496 9.99241 48.2108C10.8617 49.0915 11.8553 49.8027 12.9504 50.3785C14.6778 51.2817 16.4617 52.0721 18.3358 52.6479C18.3697 52.6591 18.4036 52.6704 18.4374 52.6817C18.5503 52.7043 18.5729 52.772 18.5616 52.8849C18.539 53.0543 18.5277 53.2237 18.5052 53.393C18.2794 55.0865 17.9632 56.7575 17.5229 58.4171C17.2633 59.3881 16.981 60.3477 16.4955 61.2396C16.1004 61.9735 15.6036 62.6283 14.9375 63.1251C14.5085 63.4525 14.0343 63.6332 13.4811 63.6332C12.973 63.6332 12.4762 63.6557 11.9682 63.667C11.1327 63.6896 10.5795 64.0961 10.2634 64.8525C10.0376 65.4057 9.78919 65.9476 9.51822 66.4783C8.95372 67.5847 8.27631 68.6234 7.65535 69.6847C6.87633 71.0282 6.25538 72.4395 6.11989 74.0088C6.05215 74.7652 6.09731 75.5104 6.48118 76.1878C6.83117 76.7975 7.29407 77.2716 7.99406 77.4523C8.60372 77.6103 9.22468 77.6329 9.84564 77.4861C10.873 77.2378 11.7537 76.741 12.5327 76.0297C13.4472 75.183 14.1246 74.1443 14.7794 73.0943C14.881 72.9249 14.9714 72.7443 15.0617 72.5636C15.1972 72.2701 15.1972 72.2701 15.4455 72.4846C16.1342 73.083 16.902 73.5798 17.7261 73.9862C19.3519 74.7878 21.0793 75.1604 22.8745 75.2507C24.1277 75.3071 25.3583 75.1942 26.5889 74.9572C29.2421 74.4378 31.6356 73.3427 33.8146 71.7621C34.5823 71.1975 35.2936 70.5766 35.971 69.9105L36.5129 69.346C36.5242 69.3234 36.5468 69.3121 36.5581 69.2895C37.179 68.6008 37.7661 67.8782 38.2742 67.0992C39.1097 65.8122 39.7984 64.4573 40.2161 62.9896C40.2725 62.7864 40.329 62.5832 40.329 62.3799C40.3854 62.2896 40.3742 62.1993 40.2613 62.1767Z" fill="black"/>
<path d="M65.4034 9.57702C68.9485 9.56573 72.0307 10.1641 75 11.3044C77.258 12.1625 79.3467 13.3253 81.2886 14.7705C82.5305 15.6963 83.6821 16.7237 84.7208 17.864C86.324 19.614 87.6449 21.5559 88.661 23.701C89.632 25.7445 90.2755 27.8896 90.5691 30.1364C90.7271 31.2879 90.7836 32.4395 90.7384 33.5911C90.6255 36.075 90.0949 38.4685 89.0901 40.7491C88.3336 42.4765 87.3514 44.0571 86.1546 45.5022C85.003 46.8909 83.6821 48.0877 82.2144 49.1151C79.9676 50.6844 77.5177 51.7908 74.8645 52.4682C73.8822 52.7166 72.8887 52.9086 71.8839 52.9989C71.8387 52.9989 71.7936 53.0102 71.7484 53.0215C71.4323 53.0666 71.4436 53.0666 71.3984 53.3714C71.3533 53.7327 71.2291 54.0714 71.0371 54.3876C71.0033 54.444 70.9581 54.4892 70.9129 54.5343C70.8339 54.6134 70.7323 54.6359 70.6533 54.5343C70.5742 54.4327 70.4839 54.4214 70.371 54.3988C69.1065 54.1279 67.8195 54.1843 66.5437 54.2069C66.205 54.2182 65.855 54.2408 65.5276 54.3424C65.3808 54.3876 65.2227 54.3537 65.076 54.3311C63.4502 54.0601 61.8696 53.5973 60.3341 53.0215C57.6922 52.0166 55.1971 50.7183 52.86 49.1264C51.5278 48.2119 50.2407 47.2296 49.0553 46.1345C47.994 45.1635 46.9892 44.1474 46.1311 42.9845C46.0295 42.8378 45.9166 42.691 45.8376 42.5329C45.6569 42.1942 45.7021 41.9797 45.9618 41.6975C46.0972 41.562 46.2553 41.4491 46.4021 41.3362C46.515 41.2458 46.6279 41.1668 46.7521 41.0765C46.8537 41.0088 46.865 40.9297 46.8085 40.8281C46.7182 40.6701 46.6279 40.512 46.5376 40.3539C45.4198 38.3104 44.6182 36.154 44.1779 33.8621C43.9747 32.7895 43.8618 31.7057 43.8166 30.6105C43.7263 28.1945 44.0763 25.8348 44.8666 23.5542C45.6682 21.2284 46.8537 19.1285 48.4456 17.2543C50.4326 14.8947 52.8374 13.0883 55.6261 11.7786C57.6809 10.8189 59.8373 10.1754 62.0841 9.8367C63.2921 9.66734 64.5227 9.56573 65.4034 9.57702ZM65.7872 10.0964C64.8953 10.0964 64.0034 10.1528 63.1115 10.2544C61.497 10.4238 59.9276 10.7625 58.3809 11.2705C57.0487 11.7109 55.7729 12.2754 54.5535 12.9641C52.4423 14.1495 50.5794 15.6511 48.9988 17.4914C47.723 18.9704 46.6956 20.6075 45.9166 22.4026C44.9005 24.7397 44.4037 27.2009 44.336 29.7412C44.3247 30.2493 44.3473 30.746 44.3698 31.2541C44.4263 32.2137 44.5505 33.1621 44.7424 34.0992C45.2505 36.5717 46.1763 38.8862 47.4859 41.0426C47.565 41.1781 47.6779 41.3023 47.6553 41.4829C47.644 41.5394 47.6891 41.5846 47.7456 41.6071C47.8472 41.6749 47.9037 41.7765 47.9601 41.8781C48.0956 42.1039 48.2424 42.3184 48.4004 42.5216C49.044 43.3345 49.8117 44.0119 50.6246 44.6555C52.3971 46.0329 54.3165 47.1845 56.3035 48.2231C58.2003 49.2054 60.1422 50.0747 62.1405 50.8086C64.0147 51.4973 65.9227 52.0618 67.8985 52.4231C68.6549 52.5586 69.4114 52.6715 70.1791 52.6828C70.3597 52.6828 70.4726 52.6263 70.563 52.457C70.9242 51.8134 71.2404 51.136 71.4436 50.4247C71.4662 50.3344 71.5 50.2554 71.5452 50.1763C71.5791 50.0973 71.6468 50.0409 71.7371 50.0634C71.8387 50.086 71.8726 50.1763 71.8613 50.278C71.8613 50.3457 71.85 50.4021 71.8274 50.4699C71.692 51.1699 71.4436 51.8247 71.1162 52.4457C71.0146 52.6376 71.0371 52.694 71.2516 52.7279C71.421 52.7505 71.5791 52.694 71.7371 52.6715C73.2387 52.457 74.7177 52.1295 76.1629 51.6441C78.1386 50.9779 79.9789 50.0747 81.695 48.8893C83.1966 47.8393 84.5514 46.6312 85.7256 45.22C86.8546 43.8652 87.7917 42.3749 88.5256 40.7604C89.5981 38.3894 90.1288 35.9056 90.2078 33.3089C90.2417 32.225 90.1626 31.1412 90.0159 30.0686C89.7336 28.0364 89.1578 26.1058 88.2998 24.2429C86.7417 20.8446 84.4498 17.9995 81.5483 15.6624C79.0983 13.6866 76.3548 12.2415 73.3516 11.2931C70.9017 10.5028 68.3727 10.119 65.7872 10.0964Z" fill="black"/>
<path d="M47.6902 34.9457C47.5999 35.0474 47.4757 35.0135 47.3628 35.0135C46.9225 34.9909 46.4821 34.9457 46.0418 34.9232C44.4048 34.8441 42.8354 35.1038 41.3903 35.9054C40.9274 36.1651 40.5097 36.4699 40.1371 36.8425C38.7258 38.2425 38.3307 40.1618 39.0871 42.0021C39.4258 42.8376 39.9339 43.5488 40.5887 44.1698C41.8758 45.3891 43.3886 46.1681 45.1273 46.5181C45.658 46.6197 46.1999 46.6536 46.7418 46.7101C48.8079 46.9133 50.8514 47.2746 52.8498 47.8842C52.9401 47.9068 53.0191 47.9294 53.1094 47.952C53.1207 47.952 53.1433 47.9407 53.1772 47.9407C53.1998 47.873 53.2111 47.7939 53.2336 47.7036C53.2901 47.7149 53.324 47.7149 53.3691 47.7262C55.8191 48.4262 58.1223 49.431 60.2448 50.8423C63.2819 52.8632 65.4044 55.618 66.8044 58.9599C67.8657 61.4888 68.3624 64.142 68.306 66.8855C68.1931 72.9709 65.9237 78.1418 61.6222 82.4208C58.6755 85.3562 55.153 87.332 51.1901 88.54C49.2821 89.1158 47.3402 89.4884 45.3531 89.6351C39.4484 90.0868 33.8824 88.9013 28.6324 86.2029C26.4873 85.0965 24.5228 83.7304 22.6825 82.1611C21.2939 80.9756 20.0406 79.6773 19.002 78.1757C18.3697 77.2725 17.8165 76.3241 17.3988 75.2967C17.2407 74.9015 17.1165 74.4951 17.0149 74.0886C16.9584 73.8741 16.981 73.637 16.981 73.4225C16.981 73.3322 17.0488 73.2532 17.0826 73.1628C17.2633 73.2419 17.2633 73.3774 17.2971 73.4903C17.5568 74.4273 17.9068 75.3193 18.3697 76.1773C18.8552 77.0692 19.4084 77.9386 20.0181 78.7515C20.2439 79.045 20.4923 79.316 20.7519 79.5869C24.7373 83.7756 29.5131 86.6771 35.0904 88.2126C36.9194 88.7094 38.771 89.0368 40.6564 89.1835C44.9918 89.511 49.1918 88.9352 53.2449 87.332C57.1513 85.7852 60.4706 83.4143 63.1012 80.1289C65.2351 77.4757 66.7028 74.4951 67.4253 71.1645C67.6963 69.9113 67.8431 68.6355 67.8205 67.3484C67.7866 64.5485 67.3011 61.8388 66.2399 59.2421C65.1673 56.6115 63.5754 54.3535 61.3851 52.5245C60.3126 51.6213 59.1271 50.8648 57.8739 50.2439C56.2933 49.4649 54.6449 48.8665 52.9401 48.4149C50.8627 47.8729 48.7627 47.5342 46.6402 47.2294C45.6693 47.0939 44.687 46.9585 43.7499 46.6423C42.3725 46.1681 41.1419 45.4569 40.1145 44.4069C39.2677 43.5262 38.6355 42.5101 38.3645 41.3134C37.9694 39.5183 38.4436 37.9489 39.7081 36.628C40.3855 35.9054 41.2209 35.3974 42.1354 35.0474C43.6709 34.4603 45.2515 34.3135 46.8773 34.6296C47.0805 34.6635 47.2837 34.7312 47.4757 34.799C47.5773 34.7877 47.6902 34.8103 47.6902 34.9457Z" fill="black"/>
<path d="M18.0532 40.8506C18.1549 41.2909 18.2452 41.7312 18.3581 42.1602C18.8661 44.1586 19.6452 46.044 20.7629 47.794C22.2983 50.1875 24.3418 52.0504 26.8257 53.4504C28.7224 54.5116 30.7434 55.2907 32.832 55.8778C34.1643 56.2503 35.5078 56.5552 36.8739 56.781C37.3707 56.86 37.8787 56.8939 38.3755 56.9616C39.0642 57.0519 39.7529 57.1535 40.4416 57.2551C41.3674 57.4019 42.2367 57.7068 43.0948 58.068C43.2415 58.1358 43.3883 58.2035 43.5464 58.26C44.3254 58.5535 44.9463 59.0729 45.4996 59.6825C45.9625 60.1793 46.3802 60.7099 46.7415 61.2857C47.6108 62.7196 47.8366 64.255 47.4866 65.8695C47.1028 67.6421 46.256 69.1662 44.9012 70.3743C43.3319 71.7743 41.4803 72.4178 39.3803 72.3049C38.1948 72.2372 37.0658 71.9323 36.0271 71.3565C35.79 71.221 35.5755 71.063 35.3497 70.9162C35.2594 70.8598 35.1691 70.792 35.1804 70.6565C35.3046 70.5549 35.4062 70.6452 35.5078 70.6904C35.8691 70.8598 36.2191 71.0404 36.5916 71.1872C37.8674 71.7178 39.1884 71.9323 40.5658 71.7855C42.6544 71.5485 44.3141 70.5549 45.556 68.8727C46.3689 67.7775 46.8657 66.5469 47.0124 65.1921C47.2044 63.3292 46.5947 61.7486 45.3189 60.4051C44.0996 59.118 42.5867 58.3842 40.8706 58.068C39.9335 57.8987 38.9964 57.7971 38.0594 57.6277C36.0836 57.2777 34.1078 56.9503 32.1772 56.3971C29.6595 55.6632 27.2886 54.6471 25.1096 53.1681C22.2419 51.2262 20.1984 48.5956 18.821 45.4344C18.5048 44.7005 18.3468 43.9215 18.2226 43.1312C18.121 42.5441 18.0758 41.9457 18.0081 41.3586C17.9855 41.2006 18.0081 41.0425 18.0081 40.8732C18.0307 40.8506 18.042 40.8506 18.0532 40.8506Z" fill="black"/>
<path d="M66.262 25.9701C66.1717 25.9136 66.07 25.8798 65.991 25.812C65.8217 25.6653 65.6636 25.4959 65.5168 25.3266C64.3314 24.0169 63.0782 22.7863 61.7008 21.6798C57.5686 18.338 52.8832 16.1928 47.6446 15.267C45.4768 14.8832 43.2866 14.7364 41.0963 14.8606C36.5125 15.109 32.2222 16.3283 28.3046 18.7557C24.3756 21.1831 21.4176 24.4911 19.4757 28.691C19.1821 29.3346 18.945 29.9894 18.6967 30.6555C18.5612 30.9942 18.5725 30.9942 18.166 31.0168C18.1999 30.9152 18.2225 30.8248 18.245 30.7345C19.7918 26.004 22.6369 22.2218 26.6562 19.3089C29.6255 17.1525 32.9222 15.7525 36.5012 14.9735C39.0302 14.4203 41.593 14.2284 44.1785 14.3864C51.4155 14.838 57.7831 17.446 63.2136 22.2669C64.1394 23.0911 64.9975 23.983 65.7652 24.954C65.9346 25.1685 66.0813 25.3943 66.2394 25.6201C66.2959 25.7104 66.3636 25.8233 66.262 25.9701Z" fill="black"/>
</svg>
