<svg width="402" height="568" viewBox="0 0 402 568" fill="none" xmlns="http://www.w3.org/2000/svg">
<rect width="402" height="568" fill="#D9D9D9"/>
<ellipse cx="55.4" cy="75" rx="25.4" ry="25" fill="#929292"/>
<ellipse cx="128.201" cy="75" rx="25.4" ry="25" fill="#929292"/>
<ellipse cx="201" cy="75" rx="25.4" ry="25" fill="#929292"/>
<ellipse cx="273.8" cy="75" rx="25.4" ry="25" fill="#929292"/>
<ellipse cx="346.599" cy="75" rx="25.4" ry="25" fill="#929292"/>
<ellipse cx="55.4" cy="145" rx="25.4" ry="25" fill="#929292"/>
<ellipse cx="128.201" cy="145" rx="25.4" ry="25" fill="#929292"/>
<ellipse cx="201" cy="145" rx="25.4" ry="25" fill="#929292"/>
<ellipse cx="273.8" cy="145" rx="25.4" ry="25" fill="#929292"/>
<ellipse cx="346.599" cy="145" rx="25.4" ry="25" fill="#929292"/>
<ellipse cx="55.4" cy="215" rx="25.4" ry="25" fill="#929292"/>
<ellipse cx="128.201" cy="215" rx="25.4" ry="25" fill="#929292"/>
<ellipse cx="201" cy="215" rx="25.4" ry="25" fill="#929292"/>
<ellipse cx="273.8" cy="215" rx="25.4" ry="25" fill="#929292"/>
<ellipse cx="346.599" cy="215" rx="25.4" ry="25" fill="#929292"/>
<ellipse cx="55.4" cy="285" rx="25.4" ry="25" fill="#929292"/>
<ellipse cx="128.201" cy="285" rx="25.4" ry="25" fill="#929292"/>
<ellipse cx="201" cy="285" rx="25.4" ry="25" fill="#929292"/>
<ellipse cx="273.8" cy="285" rx="25.4" ry="25" fill="#929292"/>
<ellipse cx="346.599" cy="285" rx="25.4" ry="25" fill="#929292"/>
<ellipse cx="55.4" cy="355" rx="25.4" ry="25" fill="#929292"/>
<ellipse cx="128.201" cy="355" rx="25.4" ry="25" fill="#929292"/>
<ellipse cx="201" cy="355" rx="25.4" ry="25" fill="#929292"/>
<ellipse cx="273.8" cy="355" rx="25.4" ry="25" fill="#929292"/>
<ellipse cx="346.599" cy="355" rx="25.4" ry="25" fill="#929292"/>
<ellipse cx="55.4" cy="425" rx="25.4" ry="25" fill="#929292"/>
<ellipse cx="128.201" cy="425" rx="25.4" ry="25" fill="#929292"/>
<ellipse cx="201" cy="425" rx="25.4" ry="25" fill="#929292"/>
<ellipse cx="273.8" cy="425" rx="25.4" ry="25" fill="#929292"/>
<ellipse cx="346.599" cy="425" rx="25.4" ry="25" fill="#929292"/>
<ellipse cx="55.4" cy="495" rx="25.4" ry="25" fill="#929292"/>
<ellipse cx="128.201" cy="495" rx="25.4" ry="25" fill="#929292"/>
<ellipse cx="201" cy="495" rx="25.4" ry="25" fill="#929292"/>
<ellipse cx="273.8" cy="495" rx="25.4" ry="25" fill="#929292"/>
<ellipse cx="346.599" cy="495" rx="25.4" ry="25" fill="#929292"/>
</svg>
