<svg width="20" height="20" viewBox="0 0 20 20" fill="none" xmlns="http://www.w3.org/2000/svg">
<path fill-rule="evenodd" clip-rule="evenodd" d="M19.6257 2.25962C19.8686 2.00815 20.003 1.67134 19.9999 1.32175C19.9969 0.972152 19.8567 0.637735 19.6095 0.390525C19.3623 0.143314 19.0278 0.0030883 18.6783 5.04033e-05C18.3287 -0.00298749 17.9919 0.131406 17.7404 0.374283L10.0164 8.09828L2.29238 0.374283C2.04091 0.131406 1.70411 -0.00298749 1.35452 5.04033e-05C1.00492 0.0030883 0.670504 0.143314 0.423293 0.390525C0.176082 0.637735 0.0358565 0.972152 0.0328186 1.32175C0.0297807 1.67134 0.164174 2.00815 0.407051 2.25962L8.13105 9.98361L0.407051 17.7076C0.279704 17.8306 0.178128 17.9777 0.108249 18.1404C0.0383705 18.3031 0.00158876 18.478 5.03427e-05 18.6551C-0.00148808 18.8321 0.0322472 19.0077 0.0992884 19.1716C0.16633 19.3354 0.265334 19.4843 0.390524 19.6095C0.515714 19.7347 0.664584 19.8337 0.828445 19.9007C0.992307 19.9678 1.16788 20.0015 1.34492 19.9999C1.52196 19.9984 1.69692 19.9616 1.85959 19.8917C2.02226 19.8219 2.16939 19.7203 2.29238 19.5929L10.0164 11.8689L17.7404 19.5929C17.9919 19.8358 18.3287 19.9702 18.6783 19.9672C19.0278 19.9641 19.3623 19.8239 19.6095 19.5767C19.8567 19.3295 19.9969 18.9951 19.9999 18.6455C20.003 18.2959 19.8686 17.9591 19.6257 17.7076L11.9017 9.98361L19.6257 2.25962Z" fill="black"/>
</svg>
