<svg width="25" height="26" viewBox="0 0 25 26" fill="none" xmlns="http://www.w3.org/2000/svg">
<path d="M22.8571 11.2057C23.9392 11.0182 24.6795 9.98063 24.323 8.94182C23.4908 6.51748 21.9269 4.39084 19.8239 2.87031C17.18 0.958711 13.8934 0.156596 10.6661 0.635259C7.4388 1.11392 4.52654 2.83543 2.55126 5.43213C0.575987 8.02883 -0.305753 11.2949 0.0943476 14.5329C0.494448 17.7709 2.14468 20.7241 4.69262 22.7619C7.24055 24.7997 10.4843 25.7605 13.731 25.4392C16.9777 25.1179 19.9702 23.54 22.0693 21.0423C23.739 19.0556 24.7382 16.6122 24.9552 14.0583C25.0482 12.9639 24.0776 12.1378 22.9823 12.2193C21.8871 12.3009 21.0891 13.265 20.9152 14.3495C20.6728 15.8612 20.0253 17.2926 19.0245 18.4834C17.5933 20.1863 15.553 21.2622 13.3393 21.4813C11.1256 21.7003 8.91403 21.0452 7.1768 19.6558C5.43957 18.2664 4.31442 16.2529 4.04163 14.0452C3.76883 11.8375 4.37002 9.61058 5.71679 7.8401C7.06357 6.06963 9.04919 4.89588 11.2496 4.56952C13.45 4.24316 15.6909 4.79006 17.4935 6.09341C18.7541 7.00478 19.7305 8.23552 20.3336 9.64276C20.7663 10.6522 21.7749 11.3931 22.8571 11.2057Z" fill="url(#paint0_angular_3394_3579)"/>
<defs>
<radialGradient id="paint0_angular_3394_3579" cx="0" cy="0" r="1" gradientUnits="userSpaceOnUse" gradientTransform="translate(12 13) rotate(-4.96974) scale(11.5434)" fill='conic-gradient(from 85deg at 48.00% 50.00%, #1A3263 0deg, rgba(219, 231, 255, 0.00) 360deg)'>
<stop stop-color="#1A3263"/>
<stop offset="1" stop-color="#DBE7FF" stop-opacity="0"/>
</radialGradient>
</defs>
</svg>
