<svg width="16" height="16" viewBox="0 0 16 16" fill="none" xmlns="http://www.w3.org/2000/svg">
<path d="M1 10.3333C1 10.3333 3.54753 6.8368 4.16129 7.125C4.96161 7.50081 5.51613 8.95833 5.51613 8.95833C5.51613 8.95833 6.31886 8.41995 6.87097 8.5C7.07596 8.52972 8.22581 9.875 8.22581 9.875C8.22581 9.875 9.18083 9.74108 9.76877 9.875C9.96515 9.91973 11.8387 11.25 11.8387 11.25H15M15 11.25V14H1V3H15V11.25Z" stroke="white" stroke-width="0.5" stroke-linecap="round" stroke-linejoin="round"/>
<path d="M12.2009 6.91732C12.8502 6.91732 13.3842 6.39921 13.3842 5.75065C13.3842 5.10209 12.8502 4.58398 12.2009 4.58398C11.5516 4.58398 11.0176 5.10209 11.0176 5.75065C11.0176 6.39921 11.5516 6.91732 12.2009 6.91732Z" stroke="white" stroke-width="0.5"/>
</svg>
