<svg width="64" height="64" viewBox="0 0 64 64" fill="none" xmlns="http://www.w3.org/2000/svg">
<path d="M62.8641 20.2619C62.8641 20.2318 62.8641 20.2092 62.8641 20.1791C62.8565 20.0738 62.8565 19.9383 62.834 19.7802C62.6458 18.1017 62.1942 16.4459 61.4942 14.8728C60.6964 13.0814 59.605 11.4406 58.2502 9.99543C55.6534 7.22559 52.4169 5.35142 48.631 4.41058C47.5697 4.14714 46.4708 3.98908 45.274 3.91381C44.7773 3.88371 44.3407 3.86865 43.9418 3.86865C43.6332 3.86865 43.3547 3.87618 43.0687 3.89123C40.9537 4.01919 38.944 4.47079 37.0924 5.25358C35.6624 5.85572 34.3602 6.61592 33.2162 7.52666C32.328 7.34601 31.4097 7.21053 30.4915 7.13526C29.7463 7.06752 29.1668 7.04494 28.6173 7.04494C28.5571 7.04494 28.4894 7.04494 28.4292 7.04494C25.1926 7.08258 22.1443 7.81267 19.3669 9.19759C17.6057 10.0782 16.0025 11.2298 14.595 12.6223C13.3832 13.819 12.3821 15.1738 11.5843 16.6641C11.2907 16.5889 10.9821 16.5512 10.666 16.5512C10.2821 16.5512 9.90581 16.6115 9.537 16.7168C8.76174 16.9502 8.03917 17.3717 7.38434 17.9738C6.81231 18.5007 6.3306 19.1404 5.90157 19.9232C5.30696 21.0221 4.90804 22.1963 4.70482 23.4307C4.53923 23.5511 4.38869 23.6941 4.23816 23.8447C3.82419 24.2887 3.52312 24.8231 3.31237 25.4629C3.07151 26.2156 2.98119 27.021 3.04893 27.8489C3.13173 28.8575 3.36506 29.8435 3.74892 30.7843C4.16289 31.808 4.83277 32.7488 5.72846 33.5768C6.39834 34.194 7.17359 34.7359 8.03164 35.18C8.82195 35.5864 9.57463 35.9326 10.2972 36.2262C10.2972 36.2412 10.2897 36.2563 10.2897 36.2638C10.1166 37.1821 9.93591 37.9272 9.73269 38.6122C9.5671 39.1466 9.37893 39.5304 9.1456 39.8164C9.12302 39.839 9.10044 39.8616 9.08539 39.8842C8.73163 39.8842 8.40046 39.8917 8.03917 39.9218C6.83489 40.0197 5.8263 40.6895 5.28438 41.7734C5.20158 41.9465 5.13384 42.1046 5.08116 42.2325C5.0661 42.2702 5.05105 42.3078 5.036 42.3454C4.76503 42.9701 4.40375 43.5873 4.09515 44.1067L3.98978 44.2798C3.77903 44.6185 3.56828 44.9723 3.36506 45.3561C2.82313 46.3421 2.48443 47.283 2.33389 48.2163C2.26615 48.427 2.22852 48.6528 2.22852 48.8862V49.7141C2.22852 49.9926 2.2812 50.2711 2.38658 50.527C2.48443 50.8958 2.64249 51.2496 2.85324 51.6109C3.47043 52.6496 4.48654 53.3119 5.70588 53.47C5.9091 53.5001 6.11985 53.5076 6.32307 53.5076C7.18865 53.5076 8.03917 53.2743 8.92733 52.7926C9.44667 52.5065 9.92839 52.1453 10.38 51.6861C10.5682 52.0248 10.7563 52.3259 10.9294 52.5969C11.7423 53.8463 12.7509 54.9753 14.0305 56.0592C15.6337 57.414 17.2594 58.4828 19.0057 59.3183C21.083 60.3118 23.2282 60.9817 25.3883 61.3204C26.0131 61.4182 26.5926 61.486 27.1571 61.5236C27.1647 61.5236 27.1722 61.5236 27.1797 61.5311C27.3001 61.5537 27.4281 61.5612 27.5485 61.5612H30.2205C30.3635 61.5612 30.5065 61.5462 30.6495 61.5161C30.6721 61.5161 30.6947 61.5161 30.7173 61.5161C30.7926 61.5085 30.8904 61.5085 31.0033 61.4935C34.5334 61.1473 37.7172 60.0032 40.4644 58.0989C42.9859 56.3527 44.9429 54.0947 46.2826 51.4001C47.0579 49.8345 47.5772 48.126 47.8106 46.3196C47.8181 46.2819 47.8181 46.2443 47.8256 46.1991C48.1417 46.5002 48.4955 46.7787 48.8718 47.0195C49.6019 47.4787 50.4524 47.7195 51.3933 47.7195C51.461 47.7195 51.5212 47.7195 51.589 47.7195C51.747 47.712 51.8825 47.6969 51.9728 47.6894C51.9954 47.6894 52.018 47.6819 52.0406 47.6819C54.1105 47.5013 55.5782 45.8679 56.0599 44.4303C56.4437 43.3013 56.4663 42.1121 56.1427 40.9078C55.7513 39.4401 54.9836 38.1229 53.8771 37.0014C53.5384 36.6627 53.1847 36.3391 52.8158 36.0455C54.6448 35.3305 56.3083 34.3144 57.7685 33.0122C60.3878 30.679 62.0437 27.7285 62.691 24.2586C62.7813 23.7694 62.8716 23.235 62.8866 22.6705C62.9017 22.5651 62.9092 22.4597 62.9092 22.3468V20.6458C62.9017 20.5178 62.8942 20.3899 62.8641 20.2619ZM29.2646 26.8554C29.0915 26.9532 28.3313 27.3747 28.1206 27.4951C27.97 27.2016 27.8345 26.8403 27.8345 26.0575C27.8496 25.9296 27.97 25.5231 28.4216 25.064C28.4517 25.0339 28.4894 24.9963 28.5195 24.9661C28.7754 25.5608 29.0463 26.1554 29.3324 26.7425C29.3023 26.7876 29.2872 26.8253 29.2646 26.8554Z" fill="white" stroke="black" stroke-width="0.0752676" stroke-miterlimit="10"/>
<path d="M46.1617 32.4099C46.1617 32.4099 46.7714 32.7034 47.7499 32.8088C49.4284 32.997 52.1982 32.6357 54.8326 29.3164C59.0024 24.0627 57.2185 21.4058 57.2185 21.4058C57.2185 21.4058 56.1874 19.7273 53.3197 20.051C50.4445 20.3746 48.3897 18.1015 48.3897 18.1015C48.3897 18.1015 45.4091 16.4758 42.865 17.2886C40.321 18.1015 39.4479 18.5908 38.1533 20.1037C38.1533 20.1037 36.2038 19.9983 33.9232 18.5832C31.6426 17.1682 30.1824 20.1037 30.1824 20.1037C30.1824 20.1037 30.2878 23.3025 33.163 23.4079C33.163 23.4079 33.3286 25.1993 34.3523 25.252C34.3523 25.252 32.7265 27.3143 28.1728 29.5347C23.6191 31.7551 22.2643 32.2443 17.8235 31.6497C13.3827 31.0551 12.5698 26.7197 12.5698 26.7197C12.5698 26.7197 12.0806 24.01 13.7591 21.7896C13.7591 21.7896 14.4666 20.3295 11.915 20.5402C11.915 20.5402 11.3731 17.8306 9.25806 19.351C7.14304 20.8714 6.87207 23.5208 6.60111 25.2068C6.60111 25.2068 5.41188 24.8305 5.19361 26.6143C4.97533 28.4057 5.68285 31.0551 6.98498 32.0035C8.2871 32.9518 12.5096 34.683 12.5096 34.683C12.5096 34.683 12.186 38.7474 11.644 39.2894C11.1021 39.8313 10.9967 42.6463 7.74518 42.2699C7.74518 42.2699 6.49574 43.5721 6.06671 45.1452C6.06671 45.1452 4.22266 47.8021 4.22266 48.615C4.22266 49.4279 4.32803 52.1902 7.03766 51.001C9.74729 49.8118 10.0709 47.5311 10.0709 47.5311C10.0709 47.5311 12.9989 50.5117 17.0106 49.5935C21.0224 48.6752 22.7008 47.8172 24.2137 45.9806C24.2137 45.9806 27.9545 48.1333 33.0501 46.7785C38.1457 45.4237 38.2511 45.371 40.9081 43.3086C40.9081 43.3086 44.5962 45.1 48.0058 42.714C48.0058 42.714 49.4133 45.8075 51.581 45.4237C52.8831 45.1903 53.5831 43.5796 53.5831 43.5796C53.5831 43.5796 54.1928 40.3657 51.2498 37.8894C48.7208 35.7593 46.1542 35.8873 46.1542 35.8873C46.1542 35.8873 47.5617 35.398 47.7273 33.1776C47.7348 33.1626 48.2241 32.7938 46.1617 32.4099Z" fill="#F16821"/>
<path d="M11.5234 48.6441C11.5234 48.6441 11.7718 52.8666 18.9448 56.6676C24.6426 59.6858 28.7672 59.4224 30.2801 59.1665C30.7392 59.0912 31.1984 59.031 31.6575 58.9783C33.3209 58.7901 37.6864 57.9246 41.5025 53.9504C46.1014 49.1634 45.2282 43.4506 45.1003 42.7431C45.0928 42.6904 45.0852 42.6452 45.0852 42.5926C45.0476 41.9603 44.6487 37.6098 41.3821 35.0583C38.3187 32.6648 34.2317 31.4078 33.208 31.1143C33.0575 31.0691 32.9069 31.054 32.7564 31.0691C31.8005 31.1293 27.8264 31.1519 25.7942 27.5466C25.6512 27.2982 25.5909 27.0197 25.621 26.7337C25.749 25.4993 26.5468 22.1424 31.2962 22.8348C31.2962 22.8348 28.8651 19.6661 31.6801 18.522C31.8908 18.4392 32.1242 18.4091 32.35 18.4392C33.05 18.5295 34.7058 18.8231 35.9703 19.7263C37.6112 20.9004 38.5746 19.6359 38.5746 19.6359C38.5746 19.6359 40.2907 17.3478 44.024 16.9941C43.8659 16.2113 40.0197 11.6425 33.494 10.1598C24.5297 8.12001 22.0534 10.649 21.4663 10.8598C21.4286 10.8748 21.391 10.8823 21.3534 10.8974C20.7362 11.063 14.9782 12.7791 12.3363 20.208C12.3363 20.208 13.9922 20.223 14.0148 21.4123C14.0223 21.8262 13.8191 22.2101 13.4954 22.4585C13.089 22.7821 12.4041 23.437 12.1256 24.4531C12.1256 24.4531 10.8987 28.1186 14.4212 32.725C17.9438 37.3314 25.8017 37.8206 25.8017 37.8206C25.8017 37.8206 30.5134 38.0389 31.4392 42.0506C32.222 45.4603 28.978 47.1914 27.9844 47.6355C27.8113 47.7108 27.6232 47.7559 27.4275 47.7559C26.592 47.7484 24.1308 47.6581 23.4609 46.7624C23.4609 46.7624 20.2996 48.9602 17.8835 49.4795C14.9331 50.1118 11.5234 48.6441 11.5234 48.6441Z" fill="#1A3263"/>
<path opacity="0.16" d="M47.5167 35.0066C47.5167 35.0066 54.78 34.5174 58.4079 28.5035C62.0358 22.4896 59.5971 17.0704 59.5971 17.0704C59.5971 17.0704 57.866 11.6511 52.1155 8.39955C46.3651 5.14799 40.5243 6.5555 40.5243 6.5555C40.5243 6.5555 34.9395 7.26301 31.2589 12.7877C27.5783 18.3123 30.2804 24.7627 30.2804 24.7627C30.2804 24.7627 30.9879 28.5035 35.5943 30.9949C40.2007 33.4862 41.6684 34.3593 47.5167 35.0066Z" fill="#3C4861"/>
<path d="M43.0757 8.59493C47.3283 7.59387 51.2422 8.60246 52.1304 10.8454C52.2583 11.1691 52.3336 11.7185 52.0777 12.0046C51.6788 12.4486 50.8508 12.5465 50.1584 12.1325C48.5175 11.1465 48.6681 9.32503 43.0757 8.59493Z" fill="#F5F5F5"/>
<path d="M42.9248 35.7967C43.5721 35.601 44.2345 35.4806 44.9119 35.5032C46.6581 35.5634 48.2989 35.9924 49.8193 36.858C50.5569 37.2795 51.2569 37.7687 51.8666 38.3634C52.6795 39.1461 53.3042 40.0644 53.6655 41.1407C53.9289 41.9085 54.0117 42.6988 53.816 43.5041C53.6203 44.2869 53.1461 44.8665 52.4763 45.288C52.258 45.431 52.0096 45.4987 51.7462 45.5439C51.3924 45.6041 51.0462 45.6267 50.6849 45.5815C50.3311 45.5288 50.0075 45.4235 49.7064 45.2278C49.3978 45.0245 49.1118 44.7912 48.8634 44.5202C48.4796 44.1063 48.2312 43.6321 48.1785 43.0601C48.1107 43.0224 48.0731 43.0751 48.0355 43.1052C47.1925 43.7149 46.2366 44.0461 45.2129 44.1665L45.3108 43.7826C47.0946 43.4816 47.8097 42.8117 48.329 42.3676C48.3892 42.3149 48.457 42.2547 48.5247 42.2095C48.6075 42.1568 48.6978 42.1644 48.758 42.2246C48.8107 42.2848 48.8183 42.3751 48.7656 42.4579C48.7204 42.5257 48.6602 42.5859 48.5925 42.6461C48.4946 42.7289 48.4645 42.8192 48.4871 42.9472C48.5548 43.4816 48.7806 43.9332 49.1645 44.3095C49.4355 44.5729 49.7215 44.8213 50.0602 45.002C50.4741 45.2278 50.9182 45.2729 51.3773 45.2278C51.4827 45.2202 51.5956 45.2052 51.701 45.1826C52.2204 45.0923 52.6117 44.7987 52.9504 44.4149C53.3569 43.9482 53.53 43.3988 53.5601 42.7891C53.5902 42.059 53.4246 41.3665 53.116 40.7117C52.6268 39.6504 51.9042 38.7773 50.9709 38.0773C50.4666 37.701 49.9473 37.3322 49.3903 37.0387C48.3667 36.5043 47.2828 36.1656 46.1463 35.9774C45.7172 35.9096 45.2807 35.872 44.8517 35.857C44.3323 35.8419 44.0915 35.8645 43.7753 35.8871C43.685 35.8946 43.6022 35.9096 43.5119 35.8946L42.9248 35.7967Z" fill="black"/>
<path d="M57.7225 21.631C57.6623 21.0515 57.5117 20.4945 57.2483 19.9752C56.9999 19.4709 56.5182 19.2451 55.9462 19.3053C55.63 19.3354 55.329 19.4257 55.0279 19.5085C54.5387 19.644 54.0494 19.7945 53.5376 19.8848C53.0107 19.9752 52.4914 20.0128 51.957 19.9074C51.4 19.802 50.8882 19.5762 50.4065 19.2902C49.842 18.9515 49.285 18.5827 48.728 18.2365C48.0054 17.7849 47.2603 17.3859 46.4399 17.1376C45.5141 16.8591 44.5808 16.7763 43.6173 16.8892C43.2485 16.9343 42.8797 17.0171 42.5184 17.0849C41.4722 17.2806 40.5238 17.7021 39.6658 18.3418C39.1916 18.6956 38.7927 19.1397 38.3712 19.5461C38.2733 19.6365 38.1981 19.7418 38.1228 19.8547C38.0701 19.93 38.0174 19.9601 37.9271 19.9526C37.1142 19.8773 36.3239 19.6891 35.6089 19.2601C35.3831 19.1246 35.1497 18.9967 34.9164 18.8762C34.2465 18.5526 33.5691 18.2515 32.824 18.1913C32.2519 18.1386 31.71 18.1988 31.1831 18.4397C30.6713 18.673 30.3401 19.0644 30.1896 19.6063C30.1143 19.8698 30.0767 20.1407 30.0616 20.4042C30.024 21.059 30.1444 21.6762 30.5584 22.2031C31.0251 22.7977 31.6272 23.1966 32.3046 23.5127C32.5756 23.6407 32.8616 23.731 33.1551 23.8138C33.2229 23.8289 33.2906 23.8439 33.2455 23.9418C33.1326 24.1901 33.1852 24.4235 33.2906 24.6568C33.4186 24.9278 33.6444 25.1084 33.9078 25.2439C33.9906 25.289 34.0809 25.3267 34.2014 25.3869C34.1487 25.4245 34.1261 25.4471 34.1035 25.4622C33.3584 26.0718 32.5831 26.6439 31.7928 27.1933C30.9799 27.7578 28.5412 29.1879 27.6982 29.7072L27.9316 29.9029C29.3014 29.1352 31.5218 27.9159 32.7562 26.9449C33.3207 26.5008 33.9078 26.0869 34.4046 25.5751C34.4723 25.5073 34.5401 25.4923 34.6304 25.5224C35.2927 25.703 35.9626 25.7181 36.6325 25.6277C37.8895 25.4622 38.9808 24.9202 39.9744 24.1375C40.0346 24.0923 40.0948 24.0396 40.1324 23.9643C40.1625 23.9041 40.1625 23.8514 40.1249 23.7912C40.0873 23.7385 40.0271 23.7235 39.9669 23.731C39.8991 23.7461 39.8389 23.7762 39.7862 23.8138C39.6432 23.9041 39.5002 23.9944 39.3572 24.0848C38.8002 24.446 38.2056 24.7396 37.5658 24.9353C36.7153 25.1987 35.8572 25.274 34.9766 25.1159C34.6003 25.0482 34.2315 24.9353 33.9078 24.7095C33.7498 24.5966 33.6369 24.4611 33.5842 24.2654C33.524 24.0396 33.6369 23.9116 33.8702 23.9493C34.3368 24.0245 34.8035 24.017 35.2777 24.0095C35.4809 24.002 35.6841 23.9719 35.8798 23.9041C35.9551 23.874 36.0228 23.8213 36.0153 23.731C36.0078 23.6332 35.9325 23.6106 35.8497 23.5955C35.6992 23.5729 35.5411 23.5654 35.3906 23.5729C34.939 23.5805 34.4874 23.5654 34.0358 23.4977C33.1401 23.3547 32.2971 23.0686 31.5519 22.5267C31.1681 22.2482 30.8294 21.9171 30.6563 21.4655C30.4154 20.8182 30.4606 20.1708 30.6788 19.5311C30.7692 19.2676 30.9498 19.0418 31.1907 18.8988C31.3562 18.801 31.5369 18.7182 31.7326 18.673C32.267 18.5451 32.7939 18.5677 33.3207 18.7107C33.9981 18.8913 34.6304 19.1999 35.2325 19.5537C36.0304 20.0203 36.8884 20.2988 37.8067 20.3816C38.7475 20.4644 39.6583 20.3665 40.5238 19.9676C40.8851 19.802 41.2389 19.6214 41.555 19.373C41.6077 19.3354 41.6604 19.2977 41.6905 19.23C41.7131 19.1698 41.6905 19.1322 41.6303 19.1246C41.5324 19.1171 41.4496 19.1698 41.3668 19.1924C41.2615 19.2225 41.1561 19.2526 41.0582 19.2977C40.3432 19.659 39.6056 19.9149 38.8153 19.945C38.7024 19.9526 38.5895 19.9601 38.469 19.9375C38.4991 19.8397 38.5744 19.7945 38.6271 19.7418C38.6647 19.7042 38.7024 19.659 38.7475 19.6214C39.0561 19.3429 39.3572 19.0494 39.6733 18.7784C40.0722 18.4322 40.5314 18.1838 41.0055 17.958C41.2991 17.815 41.6077 17.7021 41.9163 17.6268C42.2399 17.544 42.5636 17.4838 42.8872 17.4236C43.5797 17.2881 44.2797 17.2279 44.9872 17.2956C45.928 17.386 46.7936 17.687 47.6216 18.1236C48.2914 18.4773 48.9312 18.8913 49.571 19.2902C50.0753 19.6063 50.5946 19.8999 51.1516 20.1182C51.6559 20.3063 52.1752 20.3967 52.7097 20.3891C53.244 20.3816 53.7709 20.2838 54.2903 20.1483C54.343 20.1332 54.3956 20.1182 54.4483 20.1106C54.5462 20.0956 54.5612 20.1106 54.5688 20.2085C54.5688 20.2235 54.5688 20.2461 54.5688 20.2612C54.5838 20.5622 54.7118 20.8031 54.9376 20.9913C55.2161 21.2246 55.5397 21.3375 55.8784 21.4203C56.3074 21.5257 56.6612 21.7439 56.9322 22.1052C57.2107 22.4816 57.3838 22.888 57.3461 23.3622C57.316 23.7611 57.2483 24.1525 57.158 24.5364C56.8117 25.989 56.1644 27.2912 55.2763 28.4879C54.7645 29.1804 54.1623 29.79 53.515 30.3696C52.7398 31.0621 51.8892 31.6341 50.9484 32.0706C50.1656 32.4319 49.3301 32.6201 48.4721 32.6502C47.7495 32.6728 47.042 32.59 46.3495 32.3943C46.2893 32.3792 46.2216 32.3567 46.1538 32.3642C46.1012 32.3717 46.056 32.3868 46.0409 32.4395C46.0259 32.4921 46.056 32.5298 46.0936 32.5599C46.1463 32.5975 46.2141 32.6201 46.2743 32.6427C46.6882 32.7932 47.1248 32.8685 47.5538 32.9438C47.6366 32.9588 47.6893 33.0341 47.6743 33.1169C47.6065 33.4857 47.5237 33.847 47.3807 34.1932C47.3657 34.2384 47.3205 34.291 47.3657 34.3437C47.4259 34.3437 47.4334 34.2986 47.456 34.2609C47.6667 33.9147 47.8323 33.5459 47.9377 33.1545C47.9678 33.0567 48.0581 32.9889 48.156 32.9889C48.5022 32.9889 48.8409 32.9964 49.1796 32.9513C49.8721 32.8534 50.5419 32.6803 51.1817 32.3792C52.4688 31.7771 53.5602 30.904 54.5612 29.9105C54.9451 29.5266 55.2913 29.0976 55.615 28.6535C56.4053 27.5697 57.0074 26.3955 57.3762 25.1009C57.5795 24.3934 57.7225 23.6858 57.73 22.9557C57.7676 22.5041 57.7676 22.0676 57.7225 21.631Z" fill="black"/>
<path d="M46.9819 21.8569C47.4486 21.872 47.8249 22.015 48.1185 22.3462C48.1712 22.4064 48.2238 22.4666 48.2464 22.5419C48.269 22.6171 48.269 22.6849 48.2013 22.7376C48.1335 22.7827 48.0658 22.7752 47.998 22.73C47.9679 22.7075 47.9454 22.6849 47.9228 22.6548C47.6292 22.2709 47.0196 22.0978 46.4626 22.3462C46.2594 22.4365 46.0862 22.5795 45.9282 22.7376C45.8905 22.7752 45.8529 22.8128 45.8153 22.8505C45.7701 22.8881 45.725 22.9182 45.6723 22.8806C45.6196 22.8429 45.6196 22.7903 45.6346 22.7376C45.6798 22.5946 45.7551 22.4741 45.8604 22.3688C46.1615 22.0225 46.5604 21.8795 46.9819 21.8569Z" fill="black"/>
<path d="M52.4238 28.932C51.6937 28.917 51.0991 28.774 50.6325 28.4428C50.5497 28.3826 50.4744 28.3224 50.4292 28.2471C50.3916 28.1718 50.3916 28.1041 50.5045 28.0514C50.6099 28.0063 50.7228 28.0138 50.8206 28.0589C50.8658 28.0815 50.9034 28.1041 50.9411 28.1342C51.4077 28.5181 52.3712 28.6912 53.2443 28.4428C53.5679 28.3525 53.8389 28.2095 54.0872 28.0514C54.1475 28.0138 54.2077 27.9762 54.2679 27.9385C54.3356 27.9009 54.4109 27.8708 54.4937 27.9084C54.5765 27.946 54.5765 27.9987 54.5539 28.0514C54.4862 28.1944 54.3582 28.3149 54.2001 28.4202C53.7184 28.7665 53.0862 28.9019 52.4238 28.932Z" fill="black"/>
<path d="M24.1309 45.9277C24.1309 45.9277 26.3889 47.2299 28.82 47.1922" stroke="black" stroke-width="0.30107" stroke-miterlimit="10"/>
<path d="M26.8403 41.1177C26.7801 41.1026 26.7425 41.1478 26.7124 41.2005C26.6823 41.2607 26.6447 41.3284 26.6221 41.3961C26.5769 41.5015 26.5393 41.6069 26.5016 41.7198C25.8017 43.6241 24.6651 45.2348 23.1297 46.552C22.0082 47.5154 20.7587 48.253 19.3738 48.7724C18.4179 49.1261 17.4394 49.367 16.4233 49.4347C15.7233 49.4799 15.0309 49.4799 14.3309 49.367C13.5556 49.2466 12.8029 49.0358 12.0879 48.6971C11.2675 48.3132 10.5374 47.7939 9.91268 47.1391C9.84493 47.0638 9.76967 46.9885 9.6944 46.9208C9.63419 46.8681 9.56644 46.8455 9.4987 46.9057C9.43096 46.9584 9.43096 47.0337 9.4686 47.1014C9.49118 47.1466 9.52128 47.1842 9.55139 47.2219C9.64924 47.3348 9.74709 47.4477 9.85246 47.5606C9.95031 47.6659 9.95031 47.6659 9.87504 47.7939C9.56644 48.3283 9.21269 48.8401 8.84388 49.3369C8.58797 49.6756 8.317 49.9917 7.9783 50.2551C7.54175 50.6014 7.07509 50.8648 6.53316 51.0003C6.16435 51.0906 5.80307 51.0756 5.44178 50.9852C5.17835 50.9175 4.97512 50.767 4.80954 50.5562C4.47836 50.1422 4.38804 49.6756 4.44073 49.1638C4.53105 48.3509 4.7719 47.5907 5.16329 46.8756C5.4192 46.4165 5.68264 45.9649 5.9536 45.5208C6.32994 44.8961 6.69875 44.2638 6.9923 43.6015C7.09014 43.3832 7.18046 43.1574 7.27078 42.9391C7.34605 42.7585 7.48153 42.6531 7.6697 42.6004C7.76002 42.5778 7.85787 42.5628 7.95572 42.5628C8.2869 42.5553 8.61807 42.5477 8.94925 42.5402C9.39333 42.5327 9.78472 42.3972 10.1535 42.1563C10.6202 41.8402 10.9438 41.4037 11.2374 40.937C11.5836 40.38 11.7868 39.7704 11.96 39.1456C12.2384 38.1596 12.4567 37.1511 12.6298 36.1425C12.7051 35.6984 12.7804 35.2543 12.7728 34.8027C12.7728 34.6672 12.7202 34.5844 12.6073 34.5242C12.5546 34.4941 12.5019 34.4715 12.4417 34.449C12.2159 34.3737 11.9901 34.3135 11.7718 34.2232C10.7406 33.8242 9.71698 33.3877 8.74603 32.8533C8.15141 32.5221 7.58691 32.1382 7.09767 31.6641C6.48048 31.0694 5.98371 30.3845 5.71275 29.5566C5.43426 28.7211 5.22351 27.8706 5.32136 26.9749C5.37404 26.5082 5.49447 26.0641 5.77296 25.6803C5.87081 25.5448 5.99876 25.4394 6.15683 25.3943C6.31489 25.3491 6.41273 25.3717 6.39768 25.5599C6.38263 25.8082 6.41273 26.0566 6.42779 26.2975C6.45037 26.6211 6.488 26.9448 6.5708 27.2609C6.58585 27.3211 6.60843 27.3889 6.63854 27.4491C6.69875 27.5469 6.78155 27.5469 6.82671 27.4415C6.86434 27.3587 6.85681 27.2684 6.84929 27.1856C6.80413 26.7265 6.77402 26.2598 6.78155 25.8007C6.78907 25.4846 6.7966 25.176 6.81918 24.8599C6.84929 24.4685 6.87939 24.0771 6.95466 23.6932C7.15788 22.6696 7.52669 21.7062 8.08367 20.818C8.46754 20.2008 8.97183 19.7116 9.61161 19.3653C9.92773 19.1997 10.2589 19.1094 10.6202 19.1847C11.2299 19.3051 11.5159 19.7417 11.7116 20.2761C11.7417 20.3589 11.704 20.4116 11.6288 20.4567C11.4933 20.5395 11.3729 20.6449 11.2675 20.7653C11.2223 20.818 11.1847 20.8707 11.1621 20.9309C11.1471 20.9761 11.1546 21.0137 11.1847 21.0513C11.2223 21.089 11.2675 21.0965 11.3202 21.0739C11.403 21.0438 11.4632 20.9911 11.5309 20.9309C11.7492 20.7352 12.0051 20.6599 12.2911 20.6374C12.404 20.6298 12.5169 20.6298 12.6374 20.6374C13.0513 20.6449 13.3599 20.8331 13.5857 21.1718C13.6384 21.247 13.6685 21.3298 13.6836 21.4201C13.7287 21.7212 13.6309 21.9621 13.4502 22.1879C13.1567 22.5567 12.9309 22.5943 12.547 23.0158C11.9976 23.618 11.689 24.4007 11.6514 25.2136C11.6514 25.2513 11.6514 25.2889 11.6514 25.3265C11.6514 25.3341 11.6514 25.3341 11.6514 25.3416C11.6438 25.5523 11.6514 25.7555 11.6664 25.9663C11.6739 26.0491 11.6815 26.1394 11.689 26.2222C11.8546 28.3899 12.5771 30.2039 12.6825 30.2189C12.7352 30.2264 12.9986 30.1211 13.0438 30.1512C13.1266 30.2189 12.4191 28.6308 12.2159 27.5243C12.1556 27.2157 12.1105 26.5534 12.0729 26.0943C12.0277 25.5523 12.0653 25.0179 12.1782 24.4835V24.476C12.2309 24.2351 12.3589 23.9943 12.5169 23.776C12.8105 23.3395 13.1793 22.9631 13.6008 22.6395C13.7137 22.5492 13.8191 22.4664 13.8793 22.3836C14.1126 22.075 14.2029 21.7287 14.1427 21.3449C14.09 21.0062 13.8943 20.7427 13.6459 20.532C13.2546 20.2083 12.7954 20.1406 12.2987 20.2159C12.0653 20.2535 12.0729 20.2535 11.9976 20.0277C11.8395 19.5385 11.5686 19.1245 11.0793 18.8987C10.6729 18.7105 10.2589 18.6729 9.82988 18.8159C9.16 19.0342 8.63313 19.4481 8.18152 19.9675C7.76002 20.4492 7.46648 21.0137 7.20304 21.5933C6.87939 22.2932 6.66112 23.0309 6.54069 23.7911C6.488 24.1448 6.43532 24.5061 6.42779 24.8674C6.42779 24.9427 6.42779 25.0104 6.31489 25.0029C6.00629 24.9803 5.75038 25.1082 5.53963 25.319C5.27619 25.5975 5.12566 25.9362 5.02028 26.2975C4.86222 26.877 4.8547 27.4641 4.92996 28.0512C4.98265 28.4802 5.09555 28.9017 5.20845 29.3232C5.47189 30.2791 5.96866 31.0995 6.66112 31.8071C7.24068 32.3941 7.90303 32.8683 8.63313 33.2522C9.78472 33.8543 10.9739 34.3812 12.2234 34.7651C12.246 34.7726 12.2685 34.7801 12.2911 34.7877C12.3664 34.8027 12.3815 34.8479 12.3739 34.9231C12.3589 35.036 12.3513 35.1489 12.3363 35.2618C12.1858 36.3909 11.975 37.5048 11.6815 38.6112C11.5083 39.2585 11.3202 39.8983 10.9965 40.4929C10.7331 40.9822 10.4019 41.4187 9.95784 41.7499C9.67182 41.9682 9.3557 42.0886 8.98689 42.0886C8.64818 42.0886 8.317 42.1037 7.9783 42.1112C7.42132 42.1262 7.05251 42.3972 6.84176 42.9015C6.69122 43.2703 6.52564 43.6316 6.34499 43.9854C5.96866 44.723 5.51705 45.4154 5.10308 46.1229C4.58373 47.0186 4.16976 47.9595 4.07944 49.0057C4.03428 49.51 4.06439 50.0068 4.3203 50.4584C4.55363 50.8648 4.86222 51.1809 5.32888 51.3014C5.73533 51.4067 6.1493 51.4218 6.56327 51.3239C7.2482 51.1583 7.83529 50.8272 8.35464 50.353C8.9643 49.7885 9.41591 49.096 9.85246 48.396C9.9202 48.2831 9.98042 48.1627 10.0406 48.0423C10.131 47.8466 10.131 47.8466 10.2965 47.9896C10.7557 48.3885 11.2675 48.7197 11.8169 48.9906C12.9008 49.525 14.0524 49.7734 15.2491 49.8336C16.0846 49.8713 16.905 49.796 17.7254 49.6379C19.4942 49.2917 21.0899 48.5616 22.5426 47.5079C23.0544 47.1315 23.5286 46.7176 23.9802 46.2735L24.3415 45.8971C24.349 45.8821 24.364 45.8746 24.3716 45.8595C24.7855 45.4004 25.1769 44.9187 25.5156 44.3993C26.0726 43.5413 26.5317 42.6381 26.8102 41.6596C26.8479 41.5241 26.8855 41.3886 26.8855 41.2531C26.9231 41.1929 26.9156 41.1327 26.8403 41.1177Z" fill="black"/>
<path d="M43.6021 6.05135C45.9655 6.04382 48.0203 6.44274 49.9998 7.20294C51.5052 7.77498 52.8976 8.55023 54.1922 9.51366C55.0202 10.1309 55.7879 10.8158 56.4804 11.576C57.5492 12.7426 58.4298 14.0372 59.1072 15.4673C59.7545 16.8297 60.1835 18.2597 60.3792 19.7576C60.4846 20.5253 60.5222 21.293 60.4921 22.0608C60.4168 23.7166 60.0631 25.3123 59.3932 26.8327C58.8889 27.9843 58.2341 29.0381 57.4363 30.0015C56.6685 30.9273 55.7879 31.7251 54.8094 32.41C53.3116 33.4563 51.6783 34.1939 49.9095 34.6455C49.2547 34.8111 48.5923 34.939 47.9224 34.9993C47.8923 34.9993 47.8622 35.0068 47.8321 35.0143C47.6214 35.0444 47.6289 35.0444 47.5988 35.2476C47.5687 35.4885 47.4859 35.7143 47.3579 35.925C47.3354 35.9627 47.3052 35.9928 47.2751 36.0229C47.2224 36.0756 47.1547 36.0906 47.102 36.0229C47.0493 35.9551 46.9891 35.9476 46.9138 35.9326C46.0709 35.7519 45.2128 35.7896 44.3623 35.8046C44.1365 35.8121 43.9032 35.8272 43.6849 35.8949C43.587 35.925 43.4817 35.9025 43.3838 35.8874C42.3 35.7068 41.2462 35.3982 40.2226 35.0143C38.4613 34.3444 36.7979 33.4788 35.2399 32.4176C34.3517 31.8079 33.4936 31.1531 32.7033 30.423C31.9958 29.7757 31.3259 29.0983 30.7539 28.323C30.6862 28.2252 30.6109 28.1273 30.5582 28.0219C30.4378 27.7961 30.4679 27.6531 30.641 27.465C30.7313 27.3746 30.8367 27.2994 30.9346 27.2241C31.0098 27.1639 31.0851 27.1112 31.1679 27.051C31.2356 27.0058 31.2431 26.9531 31.2055 26.8854C31.1453 26.78 31.0851 26.6747 31.0249 26.5693C30.2797 25.2069 29.7453 23.7693 29.4518 22.2414C29.3163 21.5264 29.241 20.8038 29.2109 20.0737C29.1507 18.463 29.384 16.8899 29.9109 15.3695C30.4453 13.819 31.2356 12.419 32.2969 11.1695C33.6216 9.59645 35.2248 8.39217 37.0839 7.51907C38.4538 6.87929 39.8914 6.45027 41.3892 6.22446C42.1946 6.11156 43.015 6.04382 43.6021 6.05135ZM43.858 6.39758C43.2634 6.39758 42.6688 6.43521 42.0741 6.50295C40.9978 6.61586 39.9516 6.84166 38.9204 7.18036C38.0323 7.47391 37.1818 7.85024 36.3689 8.30938C34.9614 9.09969 33.7194 10.1007 32.6657 11.3276C31.8152 12.3136 31.1302 13.405 30.6109 14.6017C29.9335 16.1598 29.6023 17.8006 29.5572 19.4941C29.5496 19.8328 29.5647 20.164 29.5797 20.5027C29.6174 21.1425 29.7002 21.7747 29.8281 22.3995C30.1668 24.0478 30.784 25.5908 31.6571 27.0284C31.7098 27.1187 31.7851 27.2015 31.77 27.322C31.7625 27.3596 31.7926 27.3897 31.8302 27.4048C31.898 27.4499 31.9356 27.5177 31.9732 27.5854C32.0636 27.7359 32.1614 27.8789 32.2668 28.0144C32.6958 28.5563 33.2076 29.008 33.7496 29.437C34.9313 30.3552 36.2108 31.123 37.5355 31.8154C38.8 32.4703 40.0946 33.0498 41.4268 33.5391C42.6763 33.9982 43.9483 34.3745 45.2655 34.6154C45.7698 34.7057 46.2741 34.781 46.7859 34.7885C46.9063 34.7885 46.9816 34.7509 47.0418 34.638C47.2827 34.2089 47.4934 33.7573 47.6289 33.2832C47.6439 33.2229 47.6665 33.1702 47.6966 33.1176C47.7192 33.0649 47.7644 33.0272 47.8246 33.0423C47.8923 33.0573 47.9149 33.1176 47.9074 33.1853C47.9074 33.2305 47.8999 33.2681 47.8848 33.3133C47.7945 33.7799 47.6289 34.2165 47.4106 34.6304C47.3429 34.7584 47.3579 34.796 47.5009 34.8186C47.6138 34.8337 47.7192 34.796 47.8246 34.781C48.8256 34.638 49.8116 34.4197 50.7751 34.096C52.0923 33.652 53.3191 33.0498 54.4632 32.2595C55.4642 31.5595 56.3675 30.7542 57.1502 29.8133C57.9029 28.9101 58.5276 27.9166 59.0169 26.8402C59.7319 25.2596 60.0857 23.6037 60.1384 21.8726C60.1609 21.15 60.1082 20.4275 60.0104 19.7124C59.8222 18.3576 59.4384 17.0705 58.8663 15.8286C57.8276 13.5631 56.2997 11.6663 54.3653 10.1083C52.732 8.79109 50.903 7.82766 48.9009 7.19542C47.2676 6.66854 45.5816 6.41263 43.858 6.39758Z" fill="black"/>
<path d="M31.7926 22.9633C31.7324 23.0311 31.6496 23.0085 31.5744 23.0085C31.2808 22.9935 30.9873 22.9633 30.6937 22.9483C29.6024 22.8956 28.5561 23.0687 27.5927 23.6031C27.2841 23.7762 27.0056 23.9795 26.7572 24.2278C25.8164 25.1612 25.553 26.4407 26.0573 27.6676C26.2831 28.2245 26.6218 28.6987 27.0583 29.1127C27.9164 29.9256 28.9249 30.4449 30.0841 30.6783C30.4378 30.746 30.7991 30.7686 31.1604 30.8062C32.5378 30.9417 33.9001 31.1826 35.2324 31.589C35.2926 31.6041 35.3453 31.6191 35.4055 31.6342C35.413 31.6342 35.4281 31.6266 35.4506 31.6266C35.4657 31.5815 35.4732 31.5288 35.4883 31.4686C35.5259 31.4761 35.5485 31.4761 35.5786 31.4836C37.2119 31.9503 38.7474 32.6202 40.1624 33.561C42.1871 34.9083 43.6021 36.7448 44.5354 38.9727C45.243 40.6587 45.5741 42.4275 45.5365 44.2565C45.4612 48.3135 43.9483 51.7607 41.0807 54.6133C39.1162 56.5703 36.7678 57.8875 34.1259 58.6928C32.8539 59.0767 31.5593 59.3251 30.2346 59.4229C26.2981 59.724 22.5874 58.9337 19.0875 57.1348C17.6574 56.3972 16.3477 55.4865 15.1209 54.4402C14.1951 53.6499 13.3596 52.7843 12.6672 51.7833C12.2457 51.1811 11.8768 50.5489 11.5984 49.864C11.493 49.6005 11.4102 49.3296 11.3424 49.0586C11.3048 48.9156 11.3199 48.7575 11.3199 48.6145C11.3199 48.5543 11.365 48.5016 11.3876 48.4414C11.508 48.4941 11.508 48.5844 11.5306 48.6597C11.7037 49.2844 11.9371 49.879 12.2457 50.451C12.5693 51.0457 12.9381 51.6252 13.3446 52.1672C13.4951 52.3628 13.6607 52.5435 13.8338 52.7241C16.4907 55.5166 19.6746 57.4509 23.3928 58.4746C24.6121 58.8058 25.8465 59.024 27.1035 59.1219C29.9937 59.3401 32.7937 58.9563 35.4958 57.8875C38.1001 56.8563 40.3129 55.2757 42.0667 53.0854C43.4892 51.3166 44.4677 49.3296 44.9494 47.1092C45.1301 46.2737 45.2279 45.4232 45.2128 44.5651C45.1903 42.6985 44.8666 40.8921 44.1591 39.1609C43.4441 37.4072 42.3828 35.9018 40.9226 34.6825C40.2076 34.0804 39.4172 33.5761 38.5818 33.1621C37.528 32.6428 36.4291 32.2438 35.2926 31.9428C33.9077 31.5815 32.5077 31.3557 31.0927 31.1525C30.4454 31.0621 29.7905 30.9718 29.1658 30.7611C28.2475 30.4449 27.4271 29.9708 26.7422 29.2708C26.1777 28.6837 25.7562 28.0063 25.5755 27.2084C25.3121 26.0117 25.6282 24.9655 26.4712 24.0848C26.9228 23.6031 27.4798 23.2644 28.0895 23.0311C29.1131 22.6397 30.1669 22.5418 31.2507 22.7526C31.3862 22.7752 31.5217 22.8203 31.6496 22.8655C31.7174 22.858 31.7926 22.873 31.7926 22.9633Z" fill="black"/>
<path d="M12.0348 26.8999C12.1026 27.1934 12.1628 27.487 12.2381 27.773C12.5768 29.1052 13.0961 30.3622 13.8413 31.5289C14.8649 33.1245 16.2272 34.3664 17.8831 35.2998C19.1476 36.0073 20.4949 36.5266 21.8874 36.918C22.7755 37.1664 23.6712 37.3696 24.5819 37.5202C24.9131 37.5728 25.2518 37.5954 25.583 37.6406C26.0421 37.7008 26.5013 37.7685 26.9604 37.8363C27.5776 37.9341 28.1572 38.1373 28.7292 38.3782C28.827 38.4234 28.9249 38.4685 29.0303 38.5062C29.5496 38.7019 29.9636 39.0481 30.3324 39.4545C30.641 39.7857 30.9195 40.1395 31.1603 40.5233C31.7399 41.4792 31.8904 42.5029 31.6571 43.5792C31.4012 44.7609 30.8367 45.777 29.9335 46.5824C28.8872 47.5157 27.6529 47.9447 26.2529 47.8694C25.4626 47.8243 24.7099 47.6211 24.0174 47.2372C23.8594 47.1469 23.7164 47.0415 23.5658 46.9437C23.5056 46.906 23.4454 46.8609 23.4529 46.7705C23.5357 46.7028 23.6035 46.763 23.6712 46.7931C23.9121 46.906 24.1454 47.0264 24.3938 47.1243C25.2443 47.478 26.1249 47.6211 27.0432 47.5232C28.4356 47.3652 29.5421 46.7028 30.37 45.5813C30.9119 44.8512 31.2431 44.0308 31.341 43.1276C31.4689 41.8857 31.0625 40.8319 30.212 39.9362C29.3991 39.0782 28.3905 38.589 27.2464 38.3782C26.6217 38.2653 25.997 38.1976 25.3723 38.0847C24.0551 37.8513 22.7379 37.6331 21.4508 37.2642C19.7723 36.775 18.1917 36.0976 16.7391 35.1116C14.8273 33.817 13.4649 32.0633 12.5467 29.9558C12.3359 29.4665 12.2305 28.9472 12.1477 28.4203C12.08 28.0289 12.0499 27.63 12.0047 27.2386C11.9897 27.1332 12.0047 27.0279 12.0047 26.915C12.0198 26.8999 12.0273 26.8999 12.0348 26.8999Z" fill="black"/>
<path d="M44.1743 16.9797C44.1141 16.9421 44.0464 16.9195 43.9937 16.8744C43.8808 16.7765 43.7754 16.6636 43.6776 16.5507C42.8873 15.6776 42.0518 14.8572 41.1335 14.1196C38.3787 11.8916 35.2551 10.4616 31.7627 9.84437C30.3176 9.58846 28.8574 9.49061 27.3972 9.57341C24.3413 9.739 21.4812 10.5519 18.8694 12.1701C16.2501 13.7884 14.2781 15.9937 12.9835 18.7937C12.7878 19.2227 12.6297 19.6593 12.4641 20.1033C12.3738 20.3291 12.3813 20.3291 12.1104 20.3442C12.1329 20.2765 12.148 20.2162 12.163 20.156C13.1942 17.0023 15.0909 14.4809 17.7705 12.539C19.75 11.1013 21.9478 10.168 24.3338 9.64868C26.0198 9.27986 27.7284 9.15191 29.452 9.25728C34.2766 9.55836 38.5217 11.297 42.1421 14.511C42.7593 15.0604 43.3313 15.655 43.8432 16.3023C43.9561 16.4453 44.0539 16.5959 44.1593 16.7464C44.1969 16.8066 44.2421 16.8819 44.1743 16.9797Z" fill="black"/>
</svg>
